<svg fill="none" xmlns="http://www.w3.org/2000/svg" viewBox="0 0 57 21">
    <path
        d="M43.361.523a1.5 1.5 0 0 1 2.116-.162c2.356 2.02 7.613 6.32 10.267 7.836a1.5 1.5 0 0 1 .55 2.064c-.885 1.503-2.48 3.777-4.443 5.797-1.92 1.974-4.404 3.93-7.082 4.418a1.5 1.5 0 0 1-.537-2.952c1.72-.313 3.653-1.69 5.467-3.557a27.284 27.284 0 0 0 1.514-1.706c-5.55 1.005-13.603 1.723-21.809 2.223-10.341.631-21.117.932-27.885 1.016a1.5 1.5 0 0 1-.037-3c6.73-.083 17.456-.383 27.739-1.01 8.839-.54 17.214-1.318 22.472-2.374-2.898-2.07-6.43-4.987-8.17-6.477a1.5 1.5 0 0 1-.162-2.116Z"
        fill="currentColor" />
</svg>