<svg xmlns="http://www.w3.org/2000/svg" fill="none" viewBox="0 0 25 29">
    <path stroke="currentColor" stroke-linecap="round" stroke-width="3"
        d="M4 27.157c0-.016.118-.475 1.344-3.04 1.029-2.154 3.201-5.88 4.72-8.31 1.52-2.43 2.401-3.41 4.277-5.23 1.875-1.821 4.718-4.453 6.269-5.877s1.725-1.56 1.904-1.7" />
    <path stroke="currentColor" stroke-linecap="round" stroke-width="3"
        d="M2.05 1.847c.459.196 1.487.863 3.777 3.4 1.934 2.144 5.153 6.27 7.08 8.606 2.354 2.853 3.55 4.335 4.788 6.075 1.523 2.138 3.14 3.611 4.041 4.576.167.187.316.378.565.719s.591.823.944 1.321" />
</svg>