<svg fill="none" xmlns="http://www.w3.org/2000/svg" viewBox="0 0 41 31">
    <path
        d="M10.371 21.427c.365-.476.476-1.008.636-1.5.207-.629.516-1.212.722-1.84.31-.935.726-1.837 1.077-2.76.529-1.398 1.05-2.8 1.56-4.203a71.283 71.283 0 0 0 1.55-4.844c.444-1.558.914-3.107 1.38-4.657.132-.44.347-.848.588-1.239.222-.357.473-.441.913-.35.097.021.199.044.299.053.411.038.648.273.765.649.14.46.296.92.418 1.383.207.81.383 1.628.595 2.436.382 1.451.507 2.94.737 4.415.18 1.152.356 2.303.547 3.452.288 1.746.582 3.491.887 5.233.138.8.31 1.59.473 2.385.022.115.01.26.202.325.135-.252.303-.5.41-.772.427-1.11.831-2.23 1.244-3.347.184-.498.365-.997.55-1.495.365-.996.729-1.998 1.1-2.992.283-.76.563-1.518.864-2.273.112-.281.255-.555.432-.803.148-.21.364-.36.663-.243.072.029.156.06.224.047.556-.1.785.277.971.67.485 1.04.805 2.136 1.055 3.248.346 1.557.662 3.124 1.053 4.67.267 1.056.473 2.127.709 3.192.044.195.11.389.173.58.034.1.172.103.243.011.046-.061.09-.125.13-.185.663-.933 1.34-1.853 1.983-2.795.372-.546.708-1.115 1.073-1.665.603-.911 1.147-1.858 1.728-2.785.258-.408.542-.798.814-1.198a.699.699 0 0 1 .577-.327c.102-.003.207.022.31.002.175-.033.339-.111.517.003.208.134.315.333.38.555.121.447.059.905.074 1.356.028.94-.171 1.863-.216 2.8-.022.504-.1 1.006-.136 1.512-.07.96-.21 1.912-.359 2.863-.1.649-.174 1.307-.286 1.954-.282 1.621-.563 3.243-.869 4.86-.112.6-.108 1.208-.196 1.812-.031.212.052.397.1.594.074.31-.015.483-.29.628-.257.137-.543.15-.825.155-.95.003-1.903.005-2.856-.001a426.521 426.521 0 0 1-12.338-.24c-2.852-.097-5.699-.188-8.55-.328-2.055-.1-4.11-.135-6.166-.17-1.926-.032-3.855.007-5.783.004-.669 0-1.334-.037-1.928-.411-.253-.163-.315-.341-.296-.628.108-1.647.483-3.255.678-4.886.12-1.005.225-2.012.313-3.02.182-2.169.399-4.335.654-6.5.183-1.535.34-3.07.51-4.608.042-.353.083-.705.119-1.057.043-.39.241-.717.47-1.028a.383.383 0 0 1 .177-.136c.355-.124.689.14 1.055.06.118-.024.219.106.304.206.291.328.5.704.68 1.1.994 2.221 1.999 4.44 2.982 6.665.77 1.739 1.519 3.49 2.28 5.233.02.045.064.076.153.178l-.007-.003Zm6.928-8.691c-.224.571-.326 1.168-.38 1.772-.178 1.99-.344 3.98-.508 5.969-.127 1.56-.255 3.123-.361 4.686-.033.451-.094.906.01 1.36.042.177.088.334.244.459.271.218.501.123.775-.005.47-.215.59-.316.505-.769-.066-.357-.043-.707-.025-1.058.043-.705.099-1.412.159-2.116.174-2.039.353-4.08.529-6.121.082-.982.153-1.968.238-2.947.034-.413-.01-.81-.163-1.191-.067-.169-.148-.335-.372-.324-.253.015-.533-.032-.65.285Zm11.195 3.773c-.244-.153-.73.067-.814.363a8.328 8.328 0 0 0-.305 1.794c-.051.86-.132 1.716-.175 2.576-.07 1.391-.119 2.781-.179 4.17-.011.256.02.505.115.744.154.39.323.448.699.26.16-.079.32-.15.488-.218.16-.062.246-.173.253-.34.003-.103.009-.203.006-.303-.044-1.52.052-3.032.159-4.546.066-.96.123-1.92.194-2.88a3.041 3.041 0 0 0-.221-1.338.536.536 0 0 0-.21-.282h-.01ZM5.57 27.462c.011-.102.031-.203.028-.303-.001-.608.005-1.211-.009-1.82-.04-1.82-.037-3.638-.225-5.448-.072-.704-.166-1.407-.444-2.069-.096-.226-.21-.299-.404-.262-.233.042-.469.091-.518.37-.022.122-.03.252-.032.376-.001 1.01-.02 2.02.007 3.027.033 1.515.089 3.028.157 4.544.025.555.08 1.109.175 1.657.064.377.344.472.687.29.135-.073.273-.142.402-.221.065-.04.117-.094.178-.144l-.002.003Zm31.075-1.136c.072-.216.151-.429.208-.649.137-.514.268-1.026.389-1.544.205-.86.401-1.722.606-2.583.096-.398.136-.798.058-1.204-.035-.187-.216-.346-.38-.31-.402.082-.821.148-.96.626-.043.145-.105.285-.14.43-.39 1.646-.784 3.296-1.166 4.942-.044.196-.066.4-.056.599.015.24.392.506.556.389.302-.213.733-.285.881-.698l.004.002Z"
        fill="currentColor" />
</svg>