<svg fill="none" xmlns="http://www.w3.org/2000/svg" viewBox="0 0 77 60">
    <path
        d="M60.625 20.092c3.156 1.158 5.335 1.8 7.296 2.97 1.885 1.112 3.747 2.26 5.398 3.728.838.743 1.23 1.717 1.71 2.646.32.623-.164 1.79-.828 2.012-.613.196-1.05.524-1.454.98-2.73 3.128-6.252 5.126-9.892 6.938-1.303.652-2.561 1.392-3.93 1.926-1.117.44-2.23.901-3.374 1.237-4.34 1.284-8.675 2.621-13.2 3.137-4.712.538-9.426.674-14.132-.04a67.128 67.128 0 0 1-14.98-4.108c-1.05-.424-2.065-.92-3.083-1.407-.354-.171-.73-.37-.993-.658-.471-.516-1.063-.765-1.657-1.069-1.199-.61-2.226-1.416-2.976-2.583-.54-.845-.528-1.61.003-2.413.664-1.012 1.448-1.91 2.441-2.612 1.566-1.123 3.147-2.23 4.728-3.337.923-.651 1.863-1.287 2.764-1.967 2.545-1.913 5.48-3 8.49-3.905 2.483-.743 5.016-1.354 7.58-1.743.456-.07.92-.168 1.373-.26 5.49-1.195 11.055-1.637 16.652-1.511 4.478.1 8.89.717 12.052 2.046l.012-.007Zm-11.12 19.641c.195.013.407.073.59.029 4.633-1.091 8.978-2.9 13.076-5.297 1.6-.943 3.185-1.933 4.61-3.144.453-.376.874-.816 1.263-1.255.193-.231.113-.563-.159-.664-1.252-.45-2.34-1.233-3.608-1.667-3.643-1.246-7.28-2.51-11.074-3.27a95.518 95.518 0 0 0-6.094-1.008c-.253-.032-.61-.13-.831.187 1.517 1.233 3.244 3.232 4.152 4.81 1.846 3.219 1.417 7.418-1.002 9.995-.361.386-.797.715-.92 1.275-.203-.025-.26.019-.146.12 0 0 .098-.073.145-.12l-.003.01ZM33.672 23.884c-.373-.208-.774-.205-1.163-.113-.781.16-1.553.357-2.331.54-3.839.892-7.583 2.069-11.147 3.748-3.317 1.572-6.305 3.706-9.23 5.904-.111.08-.19.19-.282.275-.737.724-.686 1.016.225 1.382.556.228 1.116.446 1.654.7 3.241 1.533 6.498 2.987 10.03 3.806 3.182.734 6.404 1.218 9.62 1.72.86.14 1.809.36 2.717-.022-.06-.136-.089-.303-.174-.364-1.13-.724-2.06-1.666-3.002-2.602-1.005-1-1.511-2.17-1.644-3.542-.098-1.002-.063-1.992.038-2.991.294-3.128 1.454-5.787 4.035-7.71.265-.196.468-.455.696-.696.056-.012.13-.01.18-.035.028-.022.06-.117.04-.123-.107-.088-.195-.044-.246.108l-.016.015ZM44.187 2.46C44.72.77 45.816.483 47.021 1.328c.863.603 1.195 1.315 1.122 2.355-.167 2.18-.243 4.367-.373 6.559-.04.724-.076 1.43.057 2.17.209 1.08-.3 1.912-1.157 2.301-.459.206-.898.228-1.278-.183-.047-.047-.104-.098-.13-.149-.404-.777-1.552-.939-1.678-1.887-.099-.781.003-1.591.053-2.375.117-2.122.253-4.238.392-6.363.038-.525.13-1.053.158-1.296ZM22.51 5.575c.402-1.331 1.375-1.723 2.457-.92.829.613 1.667 1.23 1.8 2.476.117 1.104.673 2.153.863 3.26.234 1.322 1.009 2.287 1.837 3.216.3.332.886.506.79 1.044-.088.518-.43.974-.837 1.312-.626.519-1.727.5-2.378-.044-.462-.386-.92-.75-1.439-1.06-.633-.379-1.04-.926-1.205-1.73-.206-1.027-.895-1.9-1.081-2.953-.18-1.04-.279-2.106-.74-3.092a1.878 1.878 0 0 1-.067-1.509ZM35.962 1.995c.104.098.326.256.49.458.822.98 1.468 2.05 1.654 3.356.146 1.05.3 2.102.433 3.159.152 1.252.304 2.504.402 3.76.073 1.015-.402 1.616-1.23 1.73-.51.072-.914-.042-1.186-.522-.202-.342-.354-.803-.667-.971-1.066-.566-1.195-1.6-1.268-2.552a41.16 41.16 0 0 0-.835-5.496c-.168-.73-.095-1.455.256-2.128.322-.62 1.306-1.072 1.96-.79l-.009-.004ZM56.956 6.02c.193-.705.398-1.322 1.066-1.68.759-.41 1.366-.271 1.84.488.18.281.323.582.519.847.443.57.477 1.16.345 1.876-.424 2.22-.737 4.455-1.12 6.678-.1.589-.29 1.158-.91 1.468-.645.322-1.085.281-1.607-.24-.38-.38-.765-.74-1.088-1.164-.332-.427-.537-.917-.42-1.49.43-2.144.844-4.304 1.274-6.448.022-.13.085-.256.107-.322l-.006-.013ZM10.99 8.671a1.803 1.803 0 0 1 1.878-1.27c.124.009.291.043.358.129.797 1.024 2.09 1.603 2.479 2.997.538 1.93 1.537 3.675 2.457 5.436.715 1.367.525 1.999-1.296 2.182-.24.026-.595-.05-.73-.211-.617-.712-1.395-1.193-2.154-1.73-.351-.244-.627-.715-.778-1.145-.519-1.448-1.256-2.78-1.914-4.158-.35-.75-.543-1.5-.297-2.24l-.003.01ZM1.917 14.133c.32-1.085 1.255-1.49 2.277-.854.5.303.98.695 1.372 1.132.658.746 1.297 1.518 1.84 2.352.816 1.221 1.68 2.394 2.73 3.419.578.572.594 1.126.148 1.767-.537.76-1.445 1.016-2.283.525-1.255-.724-2.441-1.435-3.203-2.849-.709-1.322-1.838-2.425-2.663-3.712-.367-.576-.417-1.088-.228-1.784l.01.004ZM70.38 15.206c-.398 1.037-.654 1.648-.873 2.27-.253.728-.752 1.247-1.372 1.651-.743.49-1.458.263-1.942-.562-.136-.225-.212-.535-.398-.67-.8-.541-.715-1.209-.288-1.889.677-1.081 1.1-2.258 1.505-3.44.25-.718.69-1.278 1.373-1.62.857-.42 1.28-.173 1.941.627.737.888.788 1.748.351 2.741-.183.424-.294.883-.297.892Z"
        fill="currentColor" />
</svg>