<svg fill="none" xmlns="http://www.w3.org/2000/svg" viewBox="0 0 38 38">
    <path
        d="M34.47 21.498c.123-3.521.496-7.633-.1-11.15-.293-1.739-.814-3.24-1.657-4.396-.826-1.132-1.996-1.983-3.708-2.392v-.002c-2.574-.608-8.758-1.188-14.344-.553-2.795.317-5.343.929-7.195 1.927C5.636 5.92 4.614 7.2 4.51 8.876c-.1 1.909-.485 4.172-.883 6.482-.403 2.34-.824 4.754-1.029 7.052-.205 2.304-.183 4.407.256 6.132.433 1.699 1.252 2.973 2.623 3.76h.001c2.451 1.41 6.163 2.382 10.031 2.807 3.863.425 7.733.286 10.464-.421 3.557-.922 5.498-2.13 6.657-3.991 1.202-1.932 1.686-4.745 1.841-9.2Zm2.044.071c-.156 4.461-.633 7.771-2.149 10.208-1.462 2.35-3.785 3.732-7.186 4.703l-.694.189c-3.052.79-7.19.915-11.2.475-3.754-.413-7.528-1.335-10.289-2.774l-.538-.295C2.487 32.943 1.402 31.129.87 29.046.347 26.99.346 24.617.559 22.229c.213-2.398.652-4.899 1.051-7.218.404-2.346.765-4.484.857-6.25v-.011c.163-2.62 1.822-4.427 4.029-5.617 2.186-1.178 5.032-1.83 7.935-2.16 5.447-.619 11.433-.138 14.479.473l.57.123v.002c2.184.522 3.773 1.65 4.887 3.178 1.096 1.504 1.697 3.344 2.02 5.258.642 3.787.244 8.228.127 11.563Z"
        fill="currentColor" />
    <path
        d="M18.86 10.913a8.606 8.606 0 0 1 2.635.269c1.006.273 2.086.796 2.991 1.756.909.964 1.583 2.308 1.872 4.127h-.002c.383 2.358.509 5.314-.599 7.636l-.001.003c-1.1 2.286-3.462 3.214-5.71 3.373-2.255.16-4.684-.417-6.331-1.465v-.001c-1.626-1.025-2.867-2.665-3.57-4.444-.702-1.776-.906-3.792-.322-5.58 1.09-3.352 4.234-4.759 7.059-5.366l.008-.226.927.032a8.737 8.737 0 0 1 1.043-.114Zm.098 2.044c-.131.006-.25.015-.356.026l-.557.094c-2.882.485-5.463 1.634-6.278 4.144v.003c-.402 1.233-.29 2.748.281 4.192.534 1.35 1.435 2.55 2.538 3.319l.223.15h.004c1.233.785 3.215 1.284 5.087 1.152 1.878-.133 3.36-.866 4.01-2.217l.146-.333c.677-1.705.626-3.974.28-6.097v-.005c-.233-1.474-.753-2.422-1.34-3.045-.59-.627-1.31-.987-2.037-1.184a6.563 6.563 0 0 0-2.001-.2ZM28.255 5.976c-.824.145-1.702.492-1.984 1.348-.281.84.183 1.974.969 2.474.8.516 2.466.606 2.958-.416.272-.557.362-1.341.148-1.963-.273-.75-.931-1.292-1.696-1.476l-.395.033Z"
        fill="currentColor" />
</svg>