<svg fill="none" xmlns="http://www.w3.org/2000/svg" viewBox="0 0 37 32">
    <path
        d="M23.65 14.334a17.986 17.986 0 0 0-3.47-.091c-3.272.243-5.956 1.566-8.052 3.981-1.537 1.765-2.667 4.244-2.63 6.6.064 3.296 2.188 5.203 5.432 4.497a8.468 8.468 0 0 0 2.493-.971c4.045-2.318 6.043-7.032 6.214-11.512a7.578 7.578 0 0 0-.087-1.36c-.06-.39-.018-.745.127-1.068.002-.045.003-.075-.041-.091m1.25 7.734c-.763 2.194-1.795 4.02-3.114 5.51-1.846 2.081-4.313 3.59-7.084 3.985-4.014.575-6.975-2.136-7.27-6.066-.367-4.842 2.536-9.45 6.585-11.887 2.892-1.732 6.472-2.248 9.684-1.167.692.233 1.11.635.861 1.356-.001.045-.002.075.057.092.667.113 1.025.513 1.075 1.23.052.627.053 1.045.153 1.585.262 1.455.572 2.822.945 4.102.266.903 1.422 4.52 2.722 4.402.628-.053 1.353-.758 1.73-1.281 1.843-2.44 2.644-5.735 2.554-8.719-.132-4.744-2.348-8.741-6.566-10.856-5.317-2.674-11.528-2.355-16.627.701-2.45 1.465-4.707 3.353-6.338 5.651-1.818 2.56-2.919 5.487-3.302 8.782a.48.48 0 0 1-.462.431H.474c-.238-.009-.441-.165-.448-.403-.078-1.166.014-2.534.292-4.089.503-2.873 1.636-5.442 3.399-7.705C6.29 4.413 9.937 1.992 13.898.804c3.45-1.027 7.027-1.066 10.527-.139 4.637 1.22 8.576 4.085 10.448 8.517 1.872 4.447 1.537 9.77-.595 14.063-.882 1.773-2.538 3.965-4.69 4.129-2.42.183-3.824-2.727-4.445-4.597-.067-.196-.148-.437-.258-.71h-.045"
        fill="currentColor" />
</svg>