<svg fill="none" xmlns="http://www.w3.org/2000/svg" viewBox="0 0 32 44">
    <path
        d="M10.133 1.242c-.373 0-.945.03-1.716.09-.872.068-1.66.264-2.368.612-1.641.799-2.99 2.092-3.634 3.82-.328.87-.488 1.907-.597 2.884a59.006 59.006 0 0 0-.218 2.338c-.024.682-.106 1.238-.116 1.908-.004.112-.033.918-.123 2.429a79.166 79.166 0 0 0-.084 2.43 516.318 516.318 0 0 1-.147 5.618c-.045 1.302-.074 3.188-.136 5.68-.04 1.861-.053 4.716-.014 8.577.008.845.069 1.58.172 2.179.166.937.537 1.334 1.46 1.565.812.19 1.7.345 2.652.465 2.386.294 4.514.493 6.384.62 1.585.105 2.935.19 4.05.241 1.438.075 2.939.103 4.518.034.92-.03 1.78-.124 2.579-.27.524-.094 1-.214 1.402-.349 1.558-.529 2.71-1.543 3.457-3.007.812-1.585 1.268-3.27 1.592-5.071.324-1.826.549-3.63.672-5.389.046-.606.087-1.064.12-1.659.082-1.635.144-3.408.174-5.344.037-2.121.054-3.312.05-3.56.017-.472.059-2.742.151-6.81.052-2.183-.01-4.68-.184-7.517-.017-.236-.033-.473-.062-.722a2.23 2.23 0 0 0-.187-.677.257.257 0 0 0-.047-.076 1.099 1.099 0 0 0-.522-.353c-.134-.055-.345-.074-.63-.06-2.027.079-4.263.125-6.378-.073-1.683-.146-2.883-.275-4.346-.326-1.6-.056-3.187-.086-4.74-.078-1.576.007-2.494 0-2.742-.01l-.05-.001-.22-.095s-.098-.028-.148-.03M2.5 42.448a4.92 4.92 0 0 1-.92-.33C.75 41.742.34 41.057.158 40.194c-.224-1.05-.247-2.18-.258-3.274-.024-1.8-.025-3.923-.013-6.393.002-.77.013-1.44.033-2.022.055-1.562.044-2.68.096-4.168.03-.83.042-1.537.038-2.146-.005-.918.072-2.045.077-3.262.035-2.791.159-5.617.37-8.477.03-.471.104-1.2.214-2.215.094-.915.274-1.803.515-2.65.508-1.758 1.727-3.255 3.255-4.343C5.249.699 6.007.316 6.797.083c.69-.212 1.475-.308 2.37-.315 1.08.001 2.107.074 3.072.182.185.02.333.05.419.077a.211.211 0 0 0 .124.004c.137-.02.224-.03.25-.028.83.029 1.8-.012 2.753.046.718.05 1.3.083 1.734.123 1.609.13 2.984.216 4.124.28.73.038 1.572.105 2.513.188.347.024.73.075 1.15.139.099.003.185.019.285.01.832-.02 1.676-.016 2.531.014.397.014.805.053 1.213.117 1.444.224 1.782 1.216 1.986 2.49.142.91.245 1.87.31 2.865.09 1.344.125 2.798.12 4.362-.011 1.75-.037 3.189-.076 4.33a183.914 183.914 0 0 0-.084 4.18c-.037 4.244-.134 8.46-.69 12.65a39.724 39.724 0 0 1-.635 3.602c-.368 1.65-.923 3.332-1.817 4.753-1.013 1.628-2.477 2.694-4.382 3.21-.865.231-1.776.386-2.723.464-2.277.181-4.682.073-6.789-.026-.409-.014-.841-.079-1.262-.094-.472-.016-.892-.068-1.338-.096a155.112 155.112 0 0 1-5.79-.575 31.447 31.447 0 0 1-3.664-.636"
        fill="currentColor" />
    <path
        d="M24.403 36.236c.688-.162 1.332-.474 1.653-1.121.307-.635.42-1.4.495-2.106.09-.803.13-1.572.119-2.33-.012-2.507.013-4.641.087-6.414.06-1.71.24-4.026.528-6.933.136-1.398.367-3.413.708-6.057.12-.952.178-1.906.175-2.874a8.963 8.963 0 0 0-.104-1.282c-.165-.974-.661-1.7-1.513-2.188-.28-.159-.511-.291-.694-.385a.222.222 0 0 1-.085-.065.412.412 0 0 1-.094-.14.193.193 0 0 0-.097-.077 297.02 297.02 0 0 1-2.401-.196c-1.904-.228-3.19-.372-3.895-.446a28.125 28.125 0 0 0-4.788-.093 56.23 56.23 0 0 0-6.583.825c-.037 0-.063.023-.088.035-1.083.806-1.861 1.76-2.157 3.127-.149.702-.26 1.406-.336 2.148a63.138 63.138 0 0 0-.283 4.186 97.942 97.942 0 0 0 .005 6.616c0 .025.007.522.023 1.478.002.286.01.77.023 1.478.004.596.007 1.577-.004 2.954-.007.919-.097 2.058-.145 2.714a81.528 81.528 0 0 1-.277 2.97c-.075.717-.08 1.25-.138 2.167a.093.093 0 0 0 .06.089c.807.326 1.642.578 2.518.746 1.331.257 2.677.466 4.05.625 1.162.14 2.177.213 3.058.219.869.005 1.887.004 3.067-.03a45.219 45.219 0 0 1 4.057.067c.57.02 1.411.112 2.562.214.248.009.395.051.432.065l.087.003m3.84-31.756s-.026.024-.014.037a3.55 3.55 0 0 1 1.034 1.687c.187.677.272 1.437.256 2.268a26.036 26.036 0 0 1-.245 2.735c-.282 2.038-.644 4.21-.883 6.089a64.82 64.82 0 0 0-.504 6.611c-.039 1.116-.04 2.58-.042 4.405-.003 1.515-.047 2.767-.131 3.757a13.84 13.84 0 0 1-.26 1.766c-.298 1.404-.885 2.588-2.388 2.97-.79.196-1.685.264-2.676.192-.124-.004-.3.04-.394-.088-.012-.025-.048-.039-.073-.04l-.26-.009c-2.205.221-4.021.319-5.46.306-1.961-.019-3.71-.068-5.257-.184a39.569 39.569 0 0 1-2.537-.237c-1.433-.2-2.874-.51-4.089-1.273-.437-.276-.699-.607-.36-1.055.025-.024.027-.061.028-.086a51.115 51.115 0 0 1-.091-3.442c0-.72.013-1.439.038-2.158.04-1.153-.003-2.768-.01-3.637-.003-.249-.013-1.391-.028-3.44-.013-1.068-.028-3.129-.07-6.209-.028-2.024.03-4.033.149-6.015.054-.842.17-1.682.36-2.52a5.396 5.396 0 0 1 1.716-2.907.705.705 0 0 0 .12-.207c.159-.304.419-.283.673-.46a6.661 6.661 0 0 1 1.743-.858c.377-.123.688-.15.9.205-.001.013.035.026.06.027a35.263 35.263 0 0 1 6.048-.422c2.097.024 4.09.156 5.994.396 1.52.19 3.137.457 4.863.79.876.168 1.712.383 2.523.622.012 0 .025.001.037.014.121.079.143.179.076.313-.001.025-.04.048-.064.06-.202.08-.496-.018-.744-.039"
        fill="currentColor" />
    <path
        d="M18.549 7.692c.214.268.14.625-.104.828a59.04 59.04 0 0 1-2.476 1.949c-.548.415-1.282 1.16-1.804 1.538a9.65 9.65 0 0 1-1.823 1.029c-.202.092-.338.075-.422-.015-.083-.102-.066-.238.064-.407.443-.593.908-1.123 1.395-1.565.487-.43 1.375-.982 1.9-1.436a57.702 57.702 0 0 1 2.44-1.988c.255-.19.615-.19.83.079M19.674 10.943a.6.6 0 0 1-.204.515 124.747 124.747 0 0 1-3.755 3.369c-1.062.919-1.588 1.422-2.691 2.438-1.27 1.185-2.786 2.262-4.08 3.073-.152.094-.276.09-.372-.013-.06-.077-.068-.189.01-.26 1.216-1.435 2.426-2.684 3.896-3.886.933-.774 1.675-1.394 2.406-2.064a305.243 305.243 0 0 1 3.896-3.5c.025-.025.05-.036.076-.048.378-.173.648-.076.81.277l.033.113M19.11 17.84c.275.307.127.65-.168.9-.23.203-.716.62-1.483 1.264-.308.262-.618.611-.889.9-.321.323-.777.593-1.357.834-.239.09-.4.097-.483-.017-.084-.09-.066-.251.054-.483.304-.548.63-.958.987-1.244.306-.25.7-.51.983-.785l1.424-1.328c.282-.263.646-.375.921-.067"
        fill="currentColor" />
</svg>