<svg fill="none" xmlns="http://www.w3.org/2000/svg" viewBox="0 0 41 59">
    <path
        d="M22.006 38.635c-.092 2.525-.188 4.95-.273 7.374-.086 2.694-.152 5.398-.238 8.103-.018.631-.177 1.247-.185 1.878-.01 1.17-.742 1.666-1.644 2.218-.95.594-2.19.017-2.02-1.15.29-1.991.051-3.954-.047-5.932-.185-3.866-.46-7.729-.704-11.593a1.619 1.619 0 0 0-.237-.762c-.064-.108-.358-.208-.456-.144a2.026 2.026 0 0 0-.57.56c-1.534 2.235-3.696 3.911-5.415 5.982-.692.835-1.665 1.039-2.585 1.351-.81.279-1.627-.463-1.607-1.325.017-.65.277-1.23.609-1.772 1.664-2.78 3.196-5.625 5.465-7.995 1.1-1.16 1.982-2.54 2.897-3.853.563-.8.134-1.606-.86-1.691-.44-.035-.911-.039-1.337.076-2.877.73-5.834.854-8.772.966-.89.031-1.795-.117-2.672-.297-.837-.18-1.328-.774-1.352-1.484-.04-.849.451-1.396 1.163-1.631 1.435-.48 2.836-1.03 4.37-1.233 1.384-.188 2.831-.299 4.037-1.021.104-.754-.427-1.056-.751-1.465-1.403-1.762-2.824-3.504-4.236-5.256-.168-.214-.335-.418-.493-.643-.778-1.094-1.023-2.076-.514-2.424.84-.58 1.824-.763 2.8-.337.823.361 1.551.886 2.233 1.493 2.129 1.937 4.296 3.843 6.445 5.77.268.24.498.512.776.753.196.173.384.386.7.265.286-.11.388-.354.389-.614.036-1.262.042-2.523.098-3.785.218-4.941.426-9.891.704-14.834.06-1.163.35-2.303.59-3.453.104-.473.497-.687 1.006-.725.619-.042 1.117.181 1.257.767.467 1.925.845 3.873.915 5.861l.489 14.032.037 1.08c.86.27 1.146-.42 1.491-.853 1.678-2.11 3.355-4.23 4.93-6.416.592-.82 1.33-1.157 2.246-1.299.826-.128 1.374.363 1.383 1.213.013 1.23-.51 2.279-1.096 3.29-.954 1.634-1.959 3.23-2.943 4.845-.36.593-.113 1.065.567 1.061 3.502-.022 6.98-.153 10.377-1.142 1.139-.33 1.962.302 1.98 1.432.012 1.17-.554 2.17-1.641 2.549-1.187.412-2.419.655-3.43 1.5-.224.188-.677.104-1.025.156-1.335.167-2.675.503-4.007.46-2.143-.066-4.25.648-6.406.223-.705-.136-1.062.537-1.352 1.098-.244.479 0 .85.301 1.2.948 1.078 1.858 2.197 2.845 3.233 1.63 1.694 3.035 3.556 4.451 5.418.378.497.697 1.057.927 1.629.317.77.078 1.358-.627 1.823-2.18 1.477-2.389 1.494-4.291-.26-1.252-1.168-2.387-2.45-3.57-3.679-.239-.242-.42-.575-1.162-.6"
        fill="currentColor" />
</svg>