<svg viewBox="0 0 34 34" fill="none" xmlns="http://www.w3.org/2000/svg">
    <path
        d="M13.8857 0.239064L14.1331 3.68018C11.234 4.26156 8.61031 5.79014 6.6748 8.0255C4.7393 10.2609 3.60175 13.0762 3.44107 16.0287L-5.05434e-05 16.2761L0.238979 19.6008L3.6801 19.3534C4.26148 22.2526 5.79005 24.8762 8.02542 26.8117C10.2608 28.7472 13.0761 29.8848 16.0286 30.0455L16.276 33.4866L19.6007 33.2476L19.3534 29.8064C22.2525 29.2251 24.8761 27.6965 26.8116 25.4611C28.7472 23.2257 29.8847 20.4104 30.0454 17.4579L33.4865 17.2105L33.2475 13.8858L29.8064 14.1332C29.225 11.234 27.6964 8.61039 25.461 6.67489C23.2257 4.73938 20.4103 3.60184 17.4578 3.44115L17.2105 3.46865e-05M14.3733 7.02156L14.6028 10.2133L17.9275 9.97429L17.6993 6.79915C21.9042 7.18194 25.468 10.2677 26.465 14.3734L23.2732 14.6029L23.5122 17.9276L26.6874 17.6994C26.3046 21.9043 23.2189 25.4681 19.1131 26.4651L18.8837 23.2733L15.5589 23.5123L15.7872 26.6875C11.5822 26.3047 8.01846 23.219 7.02147 19.1132L10.2132 18.8837L9.97421 15.559L6.79907 15.7873C7.18186 11.5823 10.2676 8.01854 14.3733 7.02156ZM16.6237 15.0809C16.1828 15.1126 15.7726 15.3182 15.4832 15.6523C15.1939 15.9865 15.0492 16.4219 15.0808 16.8628C15.1125 17.3037 15.3181 17.714 15.6523 18.0033C15.9864 18.2926 16.4219 18.4374 16.8627 18.4057C17.3036 18.374 17.7139 18.1684 18.0032 17.8343C18.2926 17.5001 18.4373 17.0647 18.4056 16.6238C18.3739 16.1829 18.1684 15.7727 17.8342 15.4833C17.5 15.194 17.0646 15.0492 16.6237 15.0809Z"
        fill="currentColor" />
</svg>