<svg fill="none" xmlns="http://www.w3.org/2000/svg" viewBox="0 0 432 220">
    <path
        d="M57.145 94.094c0 2.965 1.402 4.114 3.54 3.793.941-.138 1.723-.598 2.458-1.15 2.069-1.563 4.321-2.918 6.183-4.711 5.056-4.873 9.906-9.952 14.917-14.87 2.32-2.276 2.895-5.241 3.493-8.206.253-1.287-1.402-2.873-2.965-2.919a5.98 5.98 0 0 0-1.793.299c-1.149.39-2.252.942-3.102 1.885-4.873 5.447-10.504 10.181-15.147 15.858-1.632 2-3.562 3.77-5.424 5.585-1.494 1.448-2.758 2.942-2.184 4.46l.023-.024ZM126.694 34.821v-1.126c0-2.345-1.839-3.816-4.206-3.218a7.666 7.666 0 0 0-2.092.896c-6.412 3.862-12.434 8.229-17.973 13.285-2.275 2.069-2.39 4.459-2.092 7.08.253 2.09 2.621 3.217 4.528 2.229a12.864 12.864 0 0 0 2.62-1.793c4.965-4.298 10.182-8.274 15.767-11.722 2.529-1.563 3.908-3.31 3.448-5.63ZM32.896 126.734c-.092.391-.322.851-.299 1.288 0 1.907 2.046 3.286 3.885 2.712.919-.276 1.654-.828 2.252-1.517 2.413-2.758 5.401-4.965 7.493-8.022.85-1.241 1.953-2.413 3.172-3.286 2.666-1.862 2.666-4.62 2.873-7.332.069-.805-.437-1.425-1.127-1.862-1.103-.689-2.298-.896-3.516-.413-1.127.436-2.299.85-3.195 1.769-3.631 3.701-7.585 7.079-10.274 11.63-1.172 1.977-1.24 1.954-1.287 5.056l.023-.023ZM.075 157.439c.046.575.023 1.195.138 1.793.414 2.206 2.414 3.264 4.413 2.298.966-.459 1.862-1.034 2.758-1.632 2.804-1.861 5.425-4.045 8.39-5.539 3.63-1.838 4.55-5.033 5.263-8.504.23-1.126-.391-2.068-1.494-2.505-1.356-.551-2.643-.391-3.976.161-1.862.758-3.448 1.931-5.08 3.08-3.24 2.275-6.32 4.757-9.101 7.607-.874.897-1.632 1.839-1.31 3.241ZM404.821 174.358c0 1.448.666 2.896 1.103 4.413 3.792 12.595 9.331 24.547 14.135 36.751.46 1.195.804 2.758 2.046 3.126 2.16.644 4.435 1.034 6.665 1.08 1.54.046 2.758-2.666 2.275-4.895-.758-3.471-1.563-6.964-2.666-10.366-2.758-8.527-5.217-17.215-9.423-25.19-1.54-2.919-3.448-5.585-6.091-7.654-1.149-.896-2.367-1.54-3.861-1.632-3.402-.184-4.436.828-4.206 4.367h.023ZM202.081 14.963c5.01-.092 8.895.275 12.664-.782 1.54-.437 3.057-.735 3.494-2.643.206-.828.781-1.54 1.517-2 1.126-.712 3.01-.896 2.39-2.873-.621-2-1.08-4.206-3.333-5.171-2.62-1.103-5.171-1.632-8.228-1.379-7.102.598-14.089 1.793-21.099 2.965-1.701.276-2.988.69-3.563 2.482-.207.667-.551 1.402-1.08 1.816-1.31 1.057-2.321 1.953-1.333 3.884.965 1.862 2.321 2.85 4.367 2.873 5.125.023 10.205 1.402 14.181.85l.023-.022ZM270.365 18.274c3.126.506 5.172-1.517 7.286-3.172 1.471-1.149 1.103-3.493-.666-5.309-2.597-2.643-5.93-3.976-9.424-4.804-5.562-1.31-11.124-2.528-16.456-4.688-2.873-1.173-7.493 1.264-7.953 4.183-.367 2.275 1.058 3.884 2.85 4.918 2.713 1.586 5.494 3.126 8.39 4.344 5.148 2.115 10.48 3.792 15.996 4.528h-.023ZM370.275 98.488c3.471-.138 4.39-1.218 3.471-4.229-.46-1.494-1.195-2.942-2.046-4.229-5.056-7.653-11.193-14.434-17.123-21.375-.367-.436-.804-.804-1.241-1.195-2.804-2.482-7.47-2.344-9.791.437-.988 1.195-.781 2.712.046 4.022.919 1.448 1.885 2.85 3.126 4.068 4.597 4.505 9.124 9.079 13.675 13.652 2.115 2.138 4.321 4.184 5.884 6.78.965 1.656 2.252 2.575 3.999 2.07ZM401.786 149.304c-.505-2.551-.988-5.08-2.114-7.424-3.172-6.734-6.436-13.423-10.228-19.858-.506-.85-1.149-1.632-1.747-2.436-1.815-2.414-6.136-3.172-8.573-1.517-1.241.85-1.793 3.976-1.08 5.929 1.195 3.264 3.379 5.976 5.194 8.849 3.793 6.045 8.183 11.722 10.826 18.456.781 2 2.321 2.437 4.16 1.264 1.379-.873 4.091-.344 3.539-3.286l.023.023ZM326.216 49.164c1.034-1.334 3.747.436 4.505-2.023.667-2.183-.782-3.54-2.184-4.758-6.895-6.044-13.997-11.813-21.811-16.617-3.149-1.93-6.62-.781-8.137 2.482-.528 1.127-.528 2.253.368 3.218 1.172 1.264 2.299 2.528 3.77 3.494 6.458 4.252 12.871 8.55 19.329 12.825 1.195.781 2.367 1.654 4.183 1.402l-.023-.023ZM163.812 13.561c-1.011.23-2.919.368-4.62 1.058-4.849 1.976-9.607 4.16-14.364 6.343-1.38.644-3.103 5.746-2.598 7.171.69 1.954 2.184 2.62 4.069 2.23 2.505-.53 5.079-.989 7.469-1.908 2.276-.897 4.574-1.586 6.918-2.16 3.77-.92 6.758-2.598 8.872-6.046 1.609-2.62 1.517-4.504-1.218-5.768-1.149-.529-2.367-1.035-4.528-.897v-.023Z"
        fill="currentColor" />
</svg>