<svg fill="none" xmlns="http://www.w3.org/2000/svg" viewBox="0 0 328 569">
    <path
        d="M224.648 183.397c-2.913-.549-4.302.617-4.381 2.777-.039.951.268 1.804.674 2.629 1.154 2.322 2.07 4.787 3.487 6.948 3.853 5.87 7.948 11.576 11.855 17.409 1.807 2.703 4.614 3.816 7.418 4.951 1.218.487 3.082-.846 3.417-2.374a5.98 5.98 0 0 0 .037-1.817c-.171-1.201-.509-2.388-1.278-3.398-4.452-5.796-8.063-12.205-12.783-17.818-1.664-1.973-3.046-4.198-4.486-6.363-1.147-1.736-2.381-3.255-3.978-2.971l.018.027ZM270.036 262.71l1.107.208c2.303.434 4.089-1.101 3.94-3.538a7.683 7.683 0 0 0-.494-2.222c-2.609-7.016-5.787-13.741-9.731-20.12-1.612-2.619-3.94-3.174-6.57-3.365-2.103-.138-3.647 1.98-3.029 4.037.3 1.016.744 2.012 1.277 2.907 3.306 5.674 6.248 11.537 8.604 17.663 1.068 2.774 2.529 4.452 4.896 4.43ZM197.057 153.531c-.367-.163-.776-.474-1.209-.532-1.875-.353-3.609 1.402-3.384 3.315.101.955.507 1.78 1.074 2.495 2.264 2.881 3.88 6.226 6.497 8.847 1.063 1.065 2.01 2.366 2.643 3.725 1.337 2.964 4.047 3.474 6.674 4.179.778.217 1.482-.165 2.038-.762.882-.957 1.306-2.093 1.057-3.38-.221-1.187-.41-2.416-1.148-3.467-2.965-4.253-5.554-8.763-9.529-12.247-1.726-1.518-1.69-1.581-4.731-2.2l.018.027ZM172.952 115.596c-.573-.061-1.178-.198-1.787-.196-2.245-.001-3.654 1.768-3.075 3.912.273 1.034.672 2.021 1.094 3.012 1.311 3.1 2.972 6.079 3.892 9.269 1.135 3.909 4.105 5.403 7.383 6.746 1.065.434 2.105-.002 2.739-1.005.793-1.231.873-2.525.577-3.938-.401-1.969-1.26-3.745-2.087-5.561-1.637-3.606-3.507-7.092-5.793-10.352-.719-1.024-1.505-1.944-2.943-1.887ZM81.457 510.238c-1.422-.268-2.969.12-4.54.268-13.08 1.397-25.85 4.63-38.732 7.094-1.26.23-2.86.28-3.45 1.432-1.032 2.004-1.837 4.168-2.294 6.35-.33 1.505 2.11 3.204 4.39 3.142 3.55-.103 7.133-.248 10.68-.703 8.89-1.133 17.883-1.943 26.498-4.601 3.154-.974 6.127-2.356 8.648-4.57 1.094-.964 1.952-2.042 2.318-3.493.81-3.309.008-4.513-3.513-4.941l-.005.022ZM275.609 340.469c-.837 4.941-1.917 8.69-1.575 12.59.145 1.594.158 3.14 1.952 3.922.774.357 1.368 1.053 1.684 1.861.492 1.239.324 3.125 2.381 2.88 2.08-.24 4.334-.283 5.699-2.318 1.569-2.371 2.56-4.78 2.877-7.831.726-7.09.844-14.178.989-21.284.043-1.722-.125-3.064-1.781-3.96-.616-.327-1.275-.801-1.584-1.398-.797-1.483-1.491-2.642-3.571-2.028-2.008.604-3.23 1.754-3.631 3.76-.971 5.033-3.265 9.77-3.459 13.779l.019.027ZM259.724 406.963c-1.075 2.978.534 5.362 1.769 7.746.857 1.659 3.229 1.731 5.341.327 3.078-2.063 5.004-5.092 6.464-8.372 2.316-5.224 4.542-10.465 7.651-15.305 1.684-2.607.144-7.597-2.64-8.589-2.168-.782-4.012.32-5.36 1.891-2.061 2.372-4.088 4.82-5.821 7.441-3.03 4.668-5.665 9.598-7.409 14.883l.005-.022ZM162.407 490.323c-.506 3.436.385 4.539 3.514 4.193 1.554-.176 3.113-.631 4.535-1.228 8.457-3.554 16.255-8.331 24.173-12.874.497-.281.939-.642 1.404-.999 2.958-2.297 3.686-6.907 1.382-9.703-.992-1.192-2.521-1.27-3.961-.699-1.593.636-3.15 1.325-4.576 2.32-5.278 3.684-10.61 7.288-15.947 10.914-2.491 1.683-4.91 3.473-7.751 4.528-1.805.643-2.947 1.738-2.773 3.548ZM106.641 511.891c2.601-.025 5.175-.031 7.687-.705 7.205-1.871 14.381-3.841 21.407-6.378.929-.34 1.816-.827 2.718-1.266 2.707-1.338 4.252-5.444 3.076-8.144-.606-1.377-3.576-2.498-5.628-2.159-3.428.571-6.497 2.215-9.657 3.468-6.642 2.609-13.033 5.873-20.139 7.225-2.11.398-2.824 1.831-2.012 3.855.603 1.516-.418 4.084 2.575 4.086l-.027.018ZM219.031 456.146c1.119 1.263-1.122 3.601 1.155 4.802 2.022 1.058 3.623-.114 5.079-1.266 7.216-5.658 14.199-11.571 20.365-18.362 2.48-2.737 1.992-6.361-.935-8.455-1.009-.728-2.115-.936-3.23-.234-1.459.918-2.91 1.791-4.13 3.058-5.373 5.561-10.783 11.068-16.179 16.624-.989 1.03-2.064 2.02-2.152 3.852l.027-.019ZM284.064 303.119c-.039-1.036.178-2.936-.185-4.735-1.045-5.132-2.311-10.211-3.577-15.291-.377-1.474-5.073-4.112-6.567-3.878-2.047.316-2.979 1.661-2.943 3.585.056 2.56.032 5.175.493 7.694.46 2.402.713 4.788.844 7.198.206 3.875 1.302 7.121 4.299 9.837 2.278 2.066 4.147 2.324 5.895-.13.732-1.032 1.454-2.135 1.718-4.284l.023.004Z"
        fill="#FFFCE2" />
    <path
        d="M232.924 317.609c-.158-14.148-2.187-27.952-6.772-41.44-4.664-13.778-10.989-26.709-19.289-38.557-5.402-7.722-11.253-15.127-17.709-22.108-8.828-9.547-17.418-19.332-26.905-28.244-7.299-6.849-13.966-14.281-21.371-21.051-7.115-6.505-13.677-13.619-20.423-20.521-4.901-5.025-9.776-10.102-14.467-15.312-5.745-6.4-11.226-13.064-16.944-19.49-5.165-5.765-9.987-11.822-14.678-17.957-11.2-14.677-22.162-29.513-32.334-44.957-6.008-9.097-12.174-18.089-17.576-27.583-3.4-5.95-6.851-11.874-10.146-17.877C13.204.502 11.78-.212 9.62.052 7.59.292 6.43 1.217 6.22 3.36c-.368 3.411.132 6.69 1.713 9.758 1.871 3.596 3.742 7.193 5.771 10.684C25.194 43.423 38.027 62.12 51.361 80.5c8.775 12.085 17.708 24.092 27.459 35.41 7.22 8.383 14.282 16.925 22.188 24.7 4.374 4.284 8.406 8.939 12.622 13.408 2.161 2.301 4.269 4.628 6.852 6.532 1.37 1.005 2.187 2.75 3.425 3.94 7.036 6.876 13.703 14.122 21.187 20.575 4.085 3.544 7.642 7.748 11.41 11.662 5.508 5.686 10.963 11.425 16.47 17.084a247.799 247.799 0 0 1 16.707 18.962c6.14 7.722 11.78 15.814 16.47 24.462 5.218 9.599 9.329 19.701 11.99 30.359 1.713 6.849 3.057 13.725 3.189 20.812.026 1.561.29 3.147.448 4.708.764 8.145-.712 16.158-1.924 24.092-.843 5.5-2.741 10.895-4.559 16.211-2.688 7.801-5.402 15.655-9.803 22.716-2.029 3.279-4.137 6.506-6.509 9.547-4.558 5.818-9.196 11.557-13.992 17.163-5.508 6.426-11.964 11.901-18.394 17.322-8.617 7.219-17.576 14.016-26.931 20.257-6.14 4.099-12.201 8.277-18.763 11.689-9.328 4.866-18.683 9.732-28.012 14.624-7.642 3.993-15.679 7.061-23.558 10.525-4.822 2.116-9.618 4.311-14.467 6.321-13.967 5.739-28.25 10.552-42.611 15.206-2.16.714-3.9 1.031-5.718-.793-.923-.926-2.346-.476-3.426.264-2.398 1.666-2.925 4.258-3.11 6.929-.026.635.29 1.428.712 1.93 1.133 1.323 2.319 2.592 3.636 3.756 1.08.952 2.425 1.401 3.9.952.66-.212 1.37-.371 2.03-.582 14.704-4.707 29.408-9.441 43.796-15.074 9.302-3.65 18.367-7.934 27.538-11.927 4.98-2.168 10.066-4.178 14.889-6.638 15.626-7.96 31.437-15.576 46.062-25.361 12.702-8.515 24.876-17.692 36.471-27.715 13.15-11.371 23.98-24.7 33.915-38.822 4.269-6.056 7.51-12.746 10.04-19.701 3.584-9.759 6.851-19.623 8.511-29.91.975-6.083 1.792-12.191 1.397-18.406l.026-.08Z"
        fill="#FF4A00" />
</svg>