<svg fill="none" xmlns="http://www.w3.org/2000/svg" viewBox="0 0 160 91">
    <path
        d="M74.907 0c.85 0 1.309.278 1.75.638.949.785 1.603 1.816 2.094 2.895.769 1.669 1.505 3.403 1.996 5.17 1.292 4.612 2.159 9.307 2.879 14.034.408 2.683.867 5.365 1.455 8.015.458 2.045 1.162 2.52 3.157 2.6 2.487.099 4.94.753 7.46.688 1.57-.033 2.96.752 4.22 1.603 1.243.834 1.439 2.519.572 3.762-.18.262-.393.54-.638.736-2.748 2.127-5.054 4.81-8.031 6.641-1.865 1.145-2.977 2.748-3.615 4.826-1.963 6.445-3.697 12.955-5.267 19.514-1.244 5.186-2.749 10.305-3.763 15.523-.474 2.405-2.175 3.027-3.827 3.959-.475.262-1.064-.13-1.489-.442-.834-.621-1.21-1.52-1.423-2.486-.605-2.863-1.358-5.709-1.8-8.604-1.128-7.426-3.058-14.673-4.776-21.952-.425-1.783-1.128-3.533-1.864-5.218-1.162-2.65-3.484-4.155-5.938-5.332-1.669-.802-3.206-1.832-4.875-2.634a6.095 6.095 0 0 1-1.341-.916c-2.176-1.93-1.292-4.253.49-5.496.704-.49 1.522-.916 2.356-1.112 2.11-.507 4.024-1.669 6.232-1.849 1.832-.147 2.601-1.243 2.928-2.928.655-3.517 1.309-7.05 2.094-10.534 1.194-5.3 2.52-10.567 3.795-15.85.147-.638.278-1.276.507-1.881.327-.916.589-2.029 1.505-2.454 1.063-.49 2.274-.654 3.157-.883V0Zm18.844 39.52c-.9-1.047-2.143-.916-3.288-.966-1.194-.065-2.388.05-3.582-.016-3.959-.261-5.873-2.028-6.56-5.921C79.258 26.745 78.195 20.872 77.05 15c-.442-2.225-.883-4.482-1.914-6.56-.065-.147-.343-.31-.49-.278-.18.033-.36.213-.491.377-.131.163-.213.376-.262.588-1.898 7.59-3.86 15.164-6.2 22.64-.261.833-.13 1.357.458 2.027 1.243 1.424.835 3.125-.785 3.959-.196.098-.409.13-.621.196-.72.213-1.456.426-2.176.638-1.848.524-3.713 1.014-5.43 1.849.228.801.768.997 1.243 1.194 1.717.752 3.157 1.914 4.661 2.993 1.816 1.309 3.125 2.994 3.746 5.186.785 2.83 1.718 5.61 2.438 8.456 1.374 5.48 2.65 10.992 3.958 16.489.082.31.164.621.523.72.442.114.573-.262.655-.557.72-2.617 1.44-5.234 2.126-7.868a287.455 287.455 0 0 1 4.99-17.224c.588-1.832 1.488-3.304 3.14-4.4 1.865-1.243 3.353-2.994 5.414-4.04.704-.36 1.456-.933 1.767-1.849l-.05-.016Z"
        fill="#FFFCE2" />
    <path
        d="M159.525 14.278c-.148.786-.622 1.554-1.391 1.996-.932.54-1.946.998-2.993 1.276a97.38 97.38 0 0 1-12.792 2.6c-7.213.999-14.46 1.833-21.69 2.7a8.75 8.75 0 0 0-2.797.818c-1.668.768-3.173.572-4.302-1.047a3.74 3.74 0 0 0-.916-.916c-.671-.458-1.178-.949-1.031-1.865.164-1.03.589-1.848 1.554-2.34 1.489-.752 3.125-.98 4.728-1.177 7.77-.981 15.556-1.783 23.326-2.862 3.549-.491 7.033-1.407 10.534-2.143.85-.18 1.701-.41 2.552-.59 2.404-.506 2.895-.31 4.334 1.735.883 1.26.9 1.292.867 1.8l.017.015ZM120.693 40.452c-.245-.082-.703-.147-1.031-.392a52.779 52.779 0 0 1-2.764-2.274c-.572-.491-.687-1.39-.311-2.094.54-1.014 1.342-1.718 2.503-1.898 2.47-.376 4.94-.768 7.41-1.095 3.337-.426 6.69-.802 10.043-1.178 2.814-.31 5.627-.589 8.441-.818 1.521-.13 3.026-.147 4.547-.442 1.047-.196 2.176-.163 3.255-.114 2.372.114 3.55 1.096 4.188 3.386.163.556.033 1.096-.311 1.537-.621.802-1.39 1.374-2.421 1.505-1.505.213-3.01.458-4.531.605-5.185.508-10.403.835-15.572 1.505-4.204.54-8.457.671-12.595 1.669-.213.049-.426.049-.835.098h-.016ZM117.715 49.563c1.064.065 1.816.065 2.568.18 6.462.915 12.972 1.112 19.482 1.177 3.157.033 6.298.147 9.455.18 2.322 0 3.926 1.014 4.874 3.124.475 1.064.278 1.914-.703 2.503-.458.278-.965.573-1.489.654-1.93.262-3.909.77-5.807.556-2.829-.327-5.643-.36-8.456-.343-4.351 0-8.653-.752-13.005-.736-2.175 0-4.334-.098-6.477-.507-.883-.164-1.718-.31-2.241-1.129-.376-.572-.916-.916-1.489-1.243-.654-.376-1.521-.703-1.243-1.652.344-1.145.851-2.306 2.208-2.568.851-.164 1.734-.147 2.307-.18l.016-.017ZM23.433 53.031c-5.332 0-10.665-.13-15.981.05-2.52.081-4.318-1.244-6.298-2.307-.588-.31-.687-1.39-.343-2.078.409-.817 1.063-1.34 1.865-1.733 1.014-.491 2.077-.573 3.173-.573l30.343-.098c.442 0 .867.033 1.309.016 2.502-.114 4.285 1.26 5.856 2.945.916.981.261 3.19-1.03 3.517-.819.212-1.718.212-2.585.212-5.431.017-10.878 0-16.309 0v.049ZM15.12 75.31c-1.242-.36-2.698-.77-4.121-1.244-.426-.147-.622-.572-.671-1.047-.164-1.57.262-2.535 1.668-3.206 1.08-.507 2.209-.948 3.354-1.226 8.996-2.225 17.666-5.513 26.45-8.375.72-.23 1.44-.508 2.175-.671 1.816-.409 3.959.834 4.646 2.666.392 1.047.262 1.603-.54 2.34-1.161 1.063-2.585 1.619-4.04 2.093-7.656 2.47-15.18 5.349-22.966 7.426-1.472.393-2.944.753-4.417 1.096-.425.098-.867.098-1.537.164v-.016ZM7.139 25.91c3.451.442 6.886.916 10.338 1.325 2.698.327 5.414.524 8.113.867 2.699.344 5.365.9 8.048 1.194 2.437.262 3.73 2.045 5.218 3.583.392.408.36 1.014.081 1.52-.523.917-1.292 1.473-2.371 1.49-.867 0-1.75 0-2.617-.099-4.417-.507-8.85-1.063-13.266-1.587-2.7-.327-5.398-.572-8.097-.932-2.683-.36-5.35-.834-8.032-1.227C2.82 31.8 1.626 30.687.448 29.558c-.654-.638-.572-1.701.115-2.323.752-.67 1.62-1.128 2.634-1.161 1.308-.05 2.617 0 3.909 0v-.164h.033Z"
        fill="#FF4A00" />
</svg>