<svg fill="none" xmlns="http://www.w3.org/2000/svg" viewBox="0 0 263 308">
    <path
        d="M94.987 181.488c-4.783-5.496-9.694-12.278-12.835-20.223-1.319-3.34-2.59-6.7-3.109-10.291-.125-.843-.518-1.233-1.456-1.305-1.614-.121-3.196.11-4.775.296-6.591.801-13.154 1.853-19.627 3.418-3.104.748-6.138 1.816-9.214 2.667-2.163.605-4.272 1.416-6.426 2.055-8.804 2.638-17.08 6.545-24.998 11.192-2.34 1.379-4.905 2.217-7.224 3.62-1.125.691-2.51.364-3.767.325-.42-.006-.613-.512-.65-.967-.069-.83.4-1.401.939-1.968 2.855-2.968 5.907-5.645 9.57-7.618 7.126-3.851 14.445-7.195 22.123-9.8 4.495-1.531 9.024-2.879 13.578-4.102 4.763-1.282 9.557-2.529 14.465-2.944 1.724-.146 3.246-1.003 5.018-1.023 2.123-.017 4.236-.385 6.362-.595.217-.025.439.052.633.026 1.354-.218 2.957-.086 3.98-.793 1.097-.772.23-2.393.291-3.637.364-8.248 1.69-16.32 4.782-24.129 2.405-6.046 5.544-11.689 9.575-16.775 4.305-5.437 9.29-10.19 15.395-13.696 2.821-1.62 5.658-3.128 8.733-4.126 4.004-1.302 8.138-2.02 12.261-1.9 2.798.078 5.723-.042 8.448.95.942.345 1.381.056 1.815-.822.237-.489.429-.98.633-1.482 2.897-7.273 7.25-13.603 12.405-19.528 3.902-4.501 8.465-8.047 13.518-10.95 3.814-2.192 7.886-4 12.337-4.536 1.156-.147 2.293-.51 3.44-.69 3.96-.668 7.877-.171 11.755.381 2.923.412 5.914.657 8.659 1.866 3.262 1.445 6.656 2.624 9.514 4.835 1.403 1.076 3.005 1.889 4.429 2.989 3.699 2.88 6.666 6.353 9.277 10.209 2.26 3.343 3.805 7.031 5.374 10.698.53 1.223 1.17 1.668 2.625 1.635 2.648-.063 5.291.133 7.876.849 3.154.863 6.451 1.279 9.523 2.343 4.347 1.511 8.756 2.946 12.64 5.618a298.496 298.496 0 0 0 5.443 3.606 25.604 25.604 0 0 1 5.023 4.282c2.533 2.821 5.103 5.61 7.601 8.464 5.805 6.659 9.321 14.439 10.934 23.162.498 2.717.928 5.431 1.196 8.185.491 5.017-.073 10.004-1.143 14.936-.61 2.82-1.511 5.584-2.21 8.377-.295 1.179-.886 2.198-1.542 3.169-.619.938-1.52 1.514-2.684 1.603-2.968.244-3.615-.428-3.11-3.366a15.03 15.03 0 0 1 .678-2.477c2.265-6.324 3.565-12.822 3.503-19.477-.042-4.592-.954-9.082-2.11-13.481-.489-1.832-1.187-3.606-1.862-5.378-1.023-2.67-2.532-5.032-4.049-7.45-2.316-3.696-5.668-6.505-7.903-10.21-1.622-1.199-2.852-2.812-4.367-4.085-2.418-2.013-5.01-3.805-7.526-5.708-.086-.072-.16-.154-.261-.17-2.008-.68-3.887-1.606-5.726-2.609-2.976-1.638-6.305-2.259-9.494-3.282-3.01-.97-6.048-1.024-9.139-1.137-.85-.023-1.208.405-1 1.195.455 1.843 1.013 3.656 1.421 5.52a69.105 69.105 0 0 1 1.443 19.007c-.359 5.652-1.499 11.284-4.093 16.438-3.54 7.044-8.937 12.188-16.865 13.955-5.623 1.248-11.077.497-16.042-2.287-1.793-1.001-3.327-2.49-4.632-4.186-3.945-5.122-4.96-11.113-4.854-17.387.127-7.781 3.212-14.48 8.083-20.574 2.255-2.81 4.846-5.223 7.599-7.504 1.575-1.308 3.269-2.532 5.059-3.48 3.329-1.736 6.493-3.899 10.273-4.575a1.37 1.37 0 0 0 .303-.123c2.475-1.182 3.22-.96 1.826-4.188-2.592-5.998-6.269-11.21-11.169-15.476-2.101-1.83-4.265-3.73-6.963-4.79-.199-.076-.435-.12-.574-.25-2.502-2.106-5.632-2.65-8.716-3.364-1.855-.437-3.67-.951-5.619-1.007-4.213-.123-8.278.575-12.339 1.715-4.604 1.289-8.68 3.505-12.654 6.225-5.581 3.822-9.604 8.942-13.459 14.272-2.54 3.514-4.304 7.455-6.067 11.373-.426.935-.262 1.361.582 1.814.372.197.745.393 1.143.545 6.645 2.782 12.109 7.093 16.943 12.33a50.33 50.33 0 0 1 8.198 11.899c3.625 7.342 4.732 15.161 3.36 23.232-1.037 6.112-3.813 11.599-8.867 15.692-1.453 1.177-3.089 1.882-4.891 2.354-3.791 1.004-7.449.381-11.057-.478-1.977-.475-3.453-1.974-5.078-3.127-6.555-4.626-9.919-11.289-11.396-19.009-1.301-6.796-1.756-13.693-1.14-20.638.479-5.421 1.24-10.819 2.721-16.12.238-.83.463-1.647.622-2.491.127-.709-.185-1.3-.85-1.53-.898-.32-1.826-.697-2.754-.734-7.149-.185-13.969 1.14-20.262 4.922-2.862 1.721-5.693 3.478-8.196 5.746a57.11 57.11 0 0 0-12.118 15.448c-4.852 9.008-7.112 18.619-7.449 28.669-.119 3.78-.088 3.838 3.722 4.048 3.292.166 6.583.332 9.816.869 2.402.391 4.732 1.187 7.209 1.151 5.456 1.556 11.035 2.641 16.263 5.061 3.852 1.786 7.382 3.967 10.967 6.185 5.405 3.322 9.63 7.832 13.407 12.744 3.163 4.104 5.364 8.816 5.821 14.161.34 4.219-.127 8.291-2.834 11.911-2.121 2.839-4.622 5.085-8.148 6.042-2.184.582-4.307 1.256-6.595 1.357-1.195.054-2.341-.128-3.486-.31-4.515-.703-9.03-1.405-12.997-3.853-.882-.546-1.89-.915-2.847-1.372-1.902-.904-3.867-1.731-5.238-3.452-.262-.316-.644-.547-1.016-.743-5.08-2.765-9.04-6.811-13.697-11.826l.037-.032Zm6.397-2.645c.945 1.148 2.905 3.04 5.023 4.791 2.022 1.668 3.895 3.511 5.854 5.256a3.49 3.49 0 0 0 1.08.644c1.518.548 2.707 1.604 4.072 2.395 1.639.95 3.156 2.178 4.908 2.793 2.884.999 5.717 2.065 8.846 2.462 3.376.43 6.352-.119 9.186-1.921 3.249-2.068 4.933-4.981 4.876-8.859-.059-3.833-1.139-7.344-3.058-10.527-1.235-2.055-2.788-3.931-4.272-5.826-1.295-1.661-3.015-2.92-4.495-4.374-3.778-3.721-8.138-6.559-12.847-8.935-.757-.382-1.465-.83-2.222-1.211-1.231-.594-2.447-1.243-3.731-1.725-2.67-.98-5.428-1.646-8.182-2.38-3.712-.999-7.458-1.5-11.287-1.778-.745-.053-1.533.018-2.22-.214-1.988-.658-4.03-.162-6.035-.231-.94-.026-1.27.482-1.033 1.523.466 2.172 1.072 4.304 1.873 6.387 2.96 7.769 7.403 14.611 13.675 21.742l-.011-.012Zm105.878-87.665c-2.346 1.81-4.05 4.19-5.805 6.487-4.012 5.302-5.655 11.322-5.263 17.786.272 4.386 1.332 8.531 4.513 11.854 3.309 3.442 7.021 5.291 11.957 3.619.72-.243 1.447-.429 2.155-.662 4.547-1.449 7.915-4.431 10.142-8.512 3.158-5.766 4.499-12.025 4.482-18.508-.013-3.174-.332-6.349-.538-9.52-.263-3.84-1.379-7.489-2.405-11.134-.293-1.032-.523-1.166-1.611-1.017-1.26.177-2.545.204-3.639 1.124-.47.4-1.14.577-1.746.802-4.598 1.709-8.491 4.567-12.23 7.67l-.012.01Zm-61.056 46.227c1.773 2.485 4.265 4.069 6.886 5.432 3.202 1.67 6.388 1.209 9.248-1.147 2.92-2.411 4.734-5.568 5.747-9.154.66-2.376 1.051-4.808 1.046-7.268-.011-5.383-.754-10.536-3.407-15.289-1.275-2.295-2.692-4.505-4.075-6.725-.769-1.221-1.557-2.488-2.591-3.492-2.321-2.27-4.899-4.265-7.184-6.567-2.295-2.313-5.392-3.185-8.1-4.767-.425-.255-.827.148-1.034.525a6.102 6.102 0 0 0-.6 1.495c-.995 4.482-2.012 8.963-2.445 13.535-.466 4.9-.319 9.779-.023 14.653.194 3.181.673 6.339 1.686 9.338 1.145 3.389 2.229 6.832 4.846 9.431Z"
        fill="#FFFCE2" />
    <path
        d="M115.701 122.458c-2.622 2.266-5.594 2.901-9.068 2.416-2.37-.326-3.912-1.727-5.477-3.153-.976-.892-1.256-2.3-1.438-3.573-.68-4.63 2.126-9.052 6.44-10.869 2.494-1.046 4.792-1.141 7.186.114.294.156.588.313.909.378 3.47.798 4.543 3.55 4.712 6.538.171 3.185-.752 6.004-3.241 8.151l-.023-.002ZM188.02 72.997c-2.73 2.344-5.76 3.058-9.111 2.093-.722-.206-1.448-.515-2.187-.492-2.81.088-3.509-2.062-4.33-3.973-.497-1.177-.516-2.57-.061-3.833 1.074-3.016 2.613-5.764 5.123-7.955 1.707-1.49 3.664-1.902 5.749-2.022.209-.017.441-.033.645.02 3.246.972 6.278 2.33 7.662 5.615 1.053 2.494.541 5.09-.889 7.485a12.227 12.227 0 0 1-2.565 3.052l-.036.01Z"
        fill="#0F0F0F" />
</svg>