<svg fill="none" xmlns="http://www.w3.org/2000/svg" viewBox="0 0 200 96">
    <path fill-rule="evenodd" clip-rule="evenodd"
        d="m2.97 29.631-.683-.652a7.157 7.157 0 0 1-.489-.53c-.468-.558-.874-1.19-1.252-1.812l-.15-.245a5.94 5.94 0 0 1-.139-.243l-.032-.062a2.912 2.912 0 0 1-.099-.207l-.015-.038a2.036 2.036 0 0 1-.072-.225l-.009-.032a1.061 1.061 0 0 1-.021-.384c.002-.017.006-.033.009-.05a.836.836 0 0 1 .02-.076l.015-.045a.847.847 0 0 1 .036-.085c.005-.011.01-.023.016-.033a.929.929 0 0 1 .054-.086c.01-.013.017-.027.027-.04.023-.03.05-.058.078-.088.01-.01.02-.024.032-.035a1.415 1.415 0 0 1 .797-.388c.047-.006.094-.009.14-.01.47-.011.96.193 1.39.479.325.21.595.52.9.757 2.618 2.01 5.384 3.936 8.26 5.385l.576.283c1.332.639 2.654 1.312 3.98 1.98.934.471 1.87.94 2.813 1.394 3.073 1.48 6.219 2.804 9.608 3.516.356.073.71.158 1.062.25.352.092.703.193 1.053.297.701.21 1.399.435 2.097.652 3.618 1.132 7.403 1.494 11.11 1.736 1.064.069 2.21.154 3.381.12a15.055 15.055 0 0 0 1.642-.137c.059-.008.117-.018.176-.027a10.34 10.34 0 0 0 1.13-.248c-.845-2.462-1.392-4.827-1.961-7.188l-.218-.957a39.156 39.156 0 0 1-.5-2.775c-.02-.139-.036-.278-.054-.416-.022-.172-.046-.343-.066-.515l-.037-.354c-.021-.198-.043-.396-.06-.594-.007-.07-.01-.14-.017-.21a34.94 34.94 0 0 1-.051-.693c-.007-.108-.011-.216-.017-.324-.01-.19-.02-.378-.027-.567-.004-.103-.005-.206-.008-.309-.005-.199-.01-.398-.011-.596v-.33c0-.196.002-.391.006-.586l.008-.268c.005-.196.012-.39.022-.585l.02-.355c.01-.175.022-.35.035-.526.01-.13.022-.26.034-.391a31.034 31.034 0 0 1 .217-1.79 28.706 28.706 0 0 1 .63-3.027l.085-.318c.045-.164.094-.328.142-.491.04-.136.08-.272.123-.407a28.22 28.22 0 0 1 .416-1.23c.046-.128.092-.256.14-.384.062-.164.127-.327.192-.49.042-.104.082-.208.125-.31.074-.18.15-.358.228-.536.044-.1.087-.202.132-.302.063-.14.128-.278.193-.418.072-.152.143-.305.218-.457.047-.097.096-.194.145-.291.08-.16.16-.32.243-.478.076-.145.156-.29.234-.434.068-.124.134-.25.204-.373.061-.109.124-.217.187-.326.09-.156.18-.312.273-.468.08-.132.162-.264.244-.396.078-.126.156-.252.236-.377.056-.089.115-.177.172-.265.118-.181.237-.363.359-.543.053-.077.108-.153.162-.23.12-.175.241-.35.366-.524.066-.092.135-.182.202-.274.31-.423.631-.846.966-1.264 1.65-2.043 3.55-3.91 6.326-4.329.625-.096 1.253-.173 1.877-.261.738-.104 1.47-.225 2.186-.423a8.707 8.707 0 0 0 1.066-.364 7.64 7.64 0 0 0 .693-.328.402.402 0 0 1 .085-.034l.099-.018c.013-.002.026 0 .04-.001a1.075 1.075 0 0 1 .298.024 1.608 1.608 0 0 1 .323.103c.19.08.381.143.572.192.48.124.963.162 1.446.154A15.19 15.19 0 0 0 70.801.36c.191-.022.382-.043.573-.062a14.406 14.406 0 0 1 1.408-.081l.32-.006h.241a21.128 21.128 0 0 1 .898.022l.15.009c.132.007.263.015.393.025a18.787 18.787 0 0 1 1.046.108l.274.038.256.04a16.816 16.816 0 0 1 .528.095 16.698 16.698 0 0 1 1.53.376 15.44 15.44 0 0 1 .55.176l.107.035c.146.05.291.104.436.16l.05.02c.14.054.279.11.416.168l.07.028c.113.048.224.1.335.15l.224.104c.124.06.248.12.371.183l.053.029c.132.068.263.138.394.211l.106.06a14.585 14.585 0 0 1 .756.46 15.45 15.45 0 0 1 .405.274c.08.055.158.112.236.169l.166.121c.082.06.162.123.242.185l.195.154a15.267 15.267 0 0 1 .762.656c.076.07.152.139.227.21l.166.161a16.939 16.939 0 0 1 .585.6l.125.139c.08.088.161.176.24.267.03.033.057.068.086.101.09.106.182.212.27.32l.05.062a19.005 19.005 0 0 1 .619.802l.342.483c.242.352.48.708.71 1.068l.18.285c.061.099.125.197.186.297l.118.198c.07.116.14.231.207.348a23.45 23.45 0 0 1 .33.584l.123.23c.057.108.115.215.17.323.058.115.114.23.17.347l.11.224.148.325.125.281c.043.101.084.203.125.304.039.095.078.19.115.286.043.113.084.227.125.341.031.087.062.172.092.26.036.107.07.216.104.325a13.899 13.899 0 0 1 .227.796l.03.123a13.436 13.436 0 0 1 .249 1.356l.01.072.003.03a11.75 11.75 0 0 1 .082 1.307c.025 3.844-.742 7.327-2.2 10.483a23.792 23.792 0 0 1-.955 1.854 25.028 25.028 0 0 1-1.524 2.353 27.321 27.321 0 0 1-1.323 1.677c-.311.365-.633.724-.966 1.078a32.719 32.719 0 0 1-3.28 3.034 24.364 24.364 0 0 1-1.77 1.286c-.324.214-.651.42-.982.618-.496.298-1 .578-1.511.844a35.441 35.441 0 0 1-3.374 1.524c-.635.25-1.276.489-1.924.713-.727.251-1.46.488-2.199.715-1.476.453-2.969.867-4.462 1.278-.413.116-.849.154-1.266.325a2.08 2.08 0 0 0-.925.738c.462.642.931 1.271 1.408 1.888l.226.29a64.198 64.198 0 0 0 3.084 3.665c7.23 7.972 15.945 13.446 26.363 16.299.404.11.81.218 1.219.32l.125.032a60.86 60.86 0 0 0 3.659.793l.168.03a64.757 64.757 0 0 0 3.785.578l.804.103c-.133-1.342-.577-2.146-.988-2.86-.14-.243-.276-.477-.395-.718-.172-.35-.341-.7-.508-1.052-.167-.351-.33-.703-.49-1.057a39.337 39.337 0 0 1-1.098-2.688 27.219 27.219 0 0 1-.534-1.663 21.54 21.54 0 0 1-.517-2.298c-.07-.43-.117-.854-.141-1.271a11.69 11.69 0 0 1-.008-1.232l.005-.092a11.461 11.461 0 0 1 .22-1.689 11.384 11.384 0 0 1 .603-1.97c.335-.831.76-1.64 1.273-2.424a16.953 16.953 0 0 1 .56-.8 4.42 4.42 0 0 1 .472-.534 2.786 2.786 0 0 1 .424-.327c.315-.19.682-.3 1.122-.27.059.003.12.008.181.017.223.033.44.02.651-.026.141-.03.279-.074.416-.128.205-.08.405-.18.602-.287.116-.064.233-.125.349-.184a8.54 8.54 0 0 1 2.06-.731 7.986 7.986 0 0 1 2.669-.111 10.27 10.27 0 0 1 2.26.556c1.06.385 2.095.924 3.106 1.546.507.311.987.653 1.441 1.023.303.246.595.505.876.774s.552.549.812.838c.261.289.512.587.754.893.241.307.474.622.698.944a25.115 25.115 0 0 1 1.535 2.524 12.816 12.816 0 0 1 1.384 4.015 12.19 12.19 0 0 1 .157 2.226l-.005.153c-.012.378-.039.758-.084 1.14a15.384 15.384 0 0 1-.557 2.638 10.991 10.991 0 0 1-1.334 2.873c-.557.864-1.213 1.65-1.925 2.401-.118.126-.238.25-.36.374a43.4 43.4 0 0 1-1.126 1.098c-.186.175-.348.33-.486.47-.078.079-.148.154-.211.224-.272.303-.406.531-.401.757a.608.608 0 0 0 .02.139c.007.023.014.047.024.07.046.119.128.242.247.38.095.11.214.228.355.36a31.112 31.112 0 0 0 1.274 1.106c2.106 1.725 4.4 3.117 6.803 4.3.601.296 1.209.579 1.822.85.614.272 1.232.533 1.856.784.934.377 1.879.734 2.829 1.076.881.316 1.768.615 2.66.895a63.928 63.928 0 0 0 8.329 2.035c1.171.201 2.35.369 3.537.497 4.212.46 8.431.8 12.649.637a50.652 50.652 0 0 0 2.043-.12c.996-.08 1.991-.19 2.986-.337l.578-.097c.28-.053.559-.114.837-.176.33-.074.661-.15.99-.223l.305-.067.243-.05c.139-.028.278-.055.417-.08l.1-.018c.157-.027.313-.05.47-.072l.105-.014.113-.013c.148-.017.296-.032.444-.042a18.831 18.831 0 0 0 1.864-.22 23.993 23.993 0 0 0 3.02-.722 37.92 37.92 0 0 0 3.447-1.255 65.736 65.736 0 0 0 4.59-2.114 60.154 60.154 0 0 0 5.936-3.477l.012-.007-2.018-.443a820.487 820.487 0 0 0-5.873-1.275c-4.242-.743-5.153-.833-5.616-.87a58.137 58.137 0 0 1-1.63-.059 3.5 3.5 0 1 1 .365-6.99c.446.024.744.033.966.039.182.005.444.009.647.018l.057.001.058.005c.826.062 1.922.182 6.428.972l.059.01.058.012c1.597.337 3.812.824 5.982 1.3 2.183.48 4.318.948 5.79 1.257 1.39.291 2.362.35 3.078.397.193.013.919.043 1.529.217.293.083 1.273.38 2.006 1.355.915 1.217.788 2.53.578 3.248-.557 1.895-1.796 7.085-3.266 10.898-.934 2.421-1.865 4.722-3.001 6.862a3.499 3.499 0 1 1-6.183-3.279c.924-1.743 1.729-3.706 2.653-6.1.337-.875.651-1.806.946-2.748l-.182.114c-.178.11-.358.218-.539.323-.352.203-.71.397-1.071.587-.541.287-1.088.567-1.632.857-.18.096-.361.194-.54.293-.36.2-.716.407-1.065.626-.649.405-1.331.755-2.029 1.074-1.745.798-3.588 1.41-5.235 2.245-.33.167-.651.344-.962.532a15.963 15.963 0 0 1-1.255.683c-1.266.62-2.566 1.061-3.878 1.427a66.79 66.79 0 0 1-2.632.662c-.877.207-1.753.41-2.621.641a23.435 23.435 0 0 1-2.412.515c-1.625.265-3.281.39-4.947.451-.277.01-.555.02-.833.027-1.668.043-3.341.037-4.999.062a51.403 51.403 0 0 1-2.539-.022 56.8 56.8 0 0 1-2.526-.138 69.033 69.033 0 0 1-7.497-1.017 88.734 88.734 0 0 1-3.704-.78 114.908 114.908 0 0 1-3.678-.915c-1.43-.378-2.848-.781-4.249-1.219a80.745 80.745 0 0 1-1.673-.541 69.833 69.833 0 0 1-1.655-.58 60.27 60.27 0 0 1-3.244-1.288 51.781 51.781 0 0 1-2.368-1.093 44.52 44.52 0 0 1-4.535-2.57 37.053 37.053 0 0 1-4.883-3.767 35.945 35.945 0 0 1-1.936-1.909 4.513 4.513 0 0 0-.541-.493c-.723-.555-1.548-.798-2.512-.75-.073.004-.147.01-.222.017-.045.004-.091.007-.136.013-1.148.129-2.313.307-3.469.378-.231.014-.462.025-.693.03-.23.004-.459.003-.688-.005a10.585 10.585 0 0 1-.684-.044 86.084 86.084 0 0 1-4.12-.506l-.386-.06c-.095-.014-.189-.03-.283-.045-.104-.017-.209-.032-.313-.05-.15-.024-.3-.05-.449-.076l-.338-.06-.378-.069a58.718 58.718 0 0 1-1.172-.23l-.265-.055-.4-.087-.342-.076-.354-.083-.383-.09-.299-.076-.406-.103-.283-.075a44.825 44.825 0 0 1-1.13-.315l-.735-.224a68.145 68.145 0 0 1-8.766-3.41 63.249 63.249 0 0 1-3.209-1.632 60.448 60.448 0 0 1-6.697-4.239 58.57 58.57 0 0 1-1.732-1.316 121.874 121.874 0 0 1-2.049-1.655c-1.691-1.399-3.337-2.85-4.891-4.389a52.337 52.337 0 0 1-1.82-1.89 46.572 46.572 0 0 1-1.296-1.481 41.56 41.56 0 0 1-1.23-1.54c-.395-.52-.777-1.05-1.147-1.59a35.286 35.286 0 0 1-1.757-2.854l-.128-.217c-.6-.955-1.32-1.279-2.43-1.185a5.433 5.433 0 0 0-.295.033 37.818 37.818 0 0 1-2.747.287 43.64 43.64 0 0 1-4.774.057 50.788 50.788 0 0 1-1.357-.074c-2.939-.2-5.86-.645-8.77-1.21-.896-.173-1.79-.359-2.685-.551-.447-.096-.894-.194-1.34-.293a33.685 33.685 0 0 1-2.432-.647c-1.598-.49-3.154-1.087-4.688-1.735a80.74 80.74 0 0 1-.765-.328c-1.528-.663-3.039-1.368-4.552-2.058a35.116 35.116 0 0 1-2.322-1.163c-.08-.043-.159-.086-.237-.13l-.1-.056a38.199 38.199 0 0 1-1.819-1.083 43.571 43.571 0 0 1-2.074-1.396 50.523 50.523 0 0 1-.516-.372c-.133-.097-.265-.196-.397-.294l-.51-.384c-.124-.095-.246-.192-.37-.288-.173-.135-.346-.27-.518-.407-.145-.116-.29-.233-.433-.35-.134-.11-.269-.217-.402-.327a66.238 66.238 0 0 1-.512-.43c-.124-.104-.25-.209-.373-.314l-.477-.415c-.123-.108-.248-.215-.37-.323l-.864-.773c-.068-.061-.134-.123-.201-.185-.48-.438-.956-.88-1.428-1.328l-.026-.024-.125-.12Zm55.225 7.797c.741 2.386 1.423 2.638 3.808 1.954 1.862-.54 3.738-1.135 5.512-1.897a22.973 22.973 0 0 0 2.903-1.48 18.427 18.427 0 0 0 1.062-.701l.11-.079a89.142 89.142 0 0 0 1.754-1.287c2.337-1.768 4.549-3.717 6.258-6.17a17.775 17.775 0 0 0 2.326-4.638l.182-.555.002.002.003-.01a18.655 18.655 0 0 0 .48-1.76 15.053 15.053 0 0 0 .312-2.144 12.924 12.924 0 0 0 .02-1.44 11.946 11.946 0 0 0-.097-1.081 11.233 11.233 0 0 0-.64-2.509 11.97 11.97 0 0 0-1.295-2.465 17.214 17.214 0 0 0-1.105-1.462 11.78 11.78 0 0 0-1.49-1.481 8.935 8.935 0 0 0-1.9-1.209c-.97-.453-2.057-.737-3.298-.809-1.249-.073-2.492-.251-3.73-.3-.154-.006-.31-.01-.464-.012-.773-.008-1.543.046-2.311.22a7.711 7.711 0 0 0-.921.27c-.318.117-.625.243-.924.376-4.213 1.873-6.51 5.284-7.782 9.409l-.041.134-.053.178a26.227 26.227 0 0 0-.824 3.832c-.805 5.816.396 11.511 2.143 17.114Zm53.482 30.605a.888.888 0 0 0 .295.11.791.791 0 0 0 .156.009c.37-.016.799-.276 1.385-.738.264-.206.513-.431.746-.672a8.118 8.118 0 0 0 1.209-1.612 8.822 8.822 0 0 0 .582-1.226 9.158 9.158 0 0 0 .606-3.322 8.386 8.386 0 0 0-.186-1.667 7.396 7.396 0 0 0-.594-1.697l-.027-.056a9.486 9.486 0 0 0-.208-.396c-1.27-2.298-3.649-4.563-5.622-5.29l-.117-.039-.097-.032-.009-.004a10.479 10.479 0 0 0-.446-.13 7.571 7.571 0 0 0-.413-.1 4.215 4.215 0 0 0-.894-.102 2.154 2.154 0 0 0-.712.122 1.503 1.503 0 0 0-.452.27c-.472.41-.755 1.154-.923 2.297a9.565 9.565 0 0 0 .54 4.868 32.136 32.136 0 0 0 1.192 2.67c.609 1.217 1.278 2.4 1.951 3.583.384.675.769 1.35 1.145 2.03.063.113.125.218.185.315.147.237.284.426.42.57.096.102.192.181.288.239Z"
        fill="currentColor" />
</svg>