<svg fill="none" xmlns="http://www.w3.org/2000/svg" viewBox="0 0 136 338">
    <path
        d="M135.954 193.528c-.096-8.62-1.33-17.032-4.117-25.25-2.836-8.395-6.681-16.275-11.727-23.494-3.285-4.705-6.841-9.217-10.766-13.471-5.367-5.818-10.59-11.78-16.357-17.21-4.438-4.174-8.491-8.702-12.993-12.827-4.326-3.964-8.315-8.298-12.416-12.504-2.98-3.062-5.944-6.156-8.796-9.33-3.492-3.9-6.824-7.96-10.3-11.876-3.141-3.513-6.073-7.203-8.924-10.942-6.81-8.943-13.474-17.983-19.658-27.393-3.653-5.544-7.401-11.022-10.686-16.807C7.148 8.798 5.05 5.189 3.046 1.53 2.374.306 1.508-.13.195.032c-1.234.145-1.939.71-2.067 2.014-.224 2.08.08 4.077 1.041 5.946 1.138 2.192 2.275 4.384 3.509 6.51 6.985 11.957 14.787 23.35 22.894 34.549 5.334 7.364 10.765 14.68 16.693 21.576 4.39 5.109 8.683 10.313 13.49 15.05 2.659 2.611 5.11 5.447 7.673 8.17 1.314 1.403 2.596 2.82 4.166 3.98.833.613 1.33 1.677 2.082 2.402 4.278 4.189 8.331 8.605 12.881 12.536 2.483 2.16 4.646 4.722 6.937 7.107 3.348 3.464 6.665 6.961 10.013 10.409a150.777 150.777 0 0 1 10.157 11.554c3.733 4.705 7.161 9.636 10.013 14.905 3.172 5.85 5.671 12.005 7.289 18.499 1.042 4.174 1.859 8.363 1.939 12.682.016.951.176 1.917.272 2.868.465 4.963-.432 9.846-1.169 14.68-.513 3.352-1.666 6.639-2.772 9.878-1.634 4.753-3.284 9.539-5.959 13.842-1.234 1.998-2.516 3.964-3.958 5.817-2.771 3.545-5.591 7.042-8.507 10.458-3.348 3.915-7.273 7.251-11.182 10.554-5.239 4.399-10.686 8.541-16.373 12.344-3.733 2.497-7.418 5.043-11.407 7.122-5.671 2.965-11.358 5.93-17.03 8.911-4.646 2.433-9.532 4.302-14.322 6.413-2.932 1.289-5.848 2.627-8.796 3.852-8.49 3.496-17.174 6.429-25.905 9.265-1.314.435-2.371.629-3.477-.483-.56-.564-1.426-.29-2.082.161-1.458 1.015-1.779 2.594-1.89 4.222-.017.386.175.87.432 1.176.689.806 1.41 1.579 2.21 2.288.657.58 1.475.854 2.372.58.4-.129.833-.225 1.233-.354 8.94-2.868 17.88-5.753 26.627-9.185 5.655-2.224 11.166-4.834 16.741-7.268 3.028-1.321 6.12-2.546 9.052-4.044 9.5-4.85 19.113-9.491 28.004-15.453 7.722-5.189 15.124-10.781 22.173-16.888 7.994-6.929 14.579-15.05 20.618-23.655 2.596-3.69 4.566-7.767 6.104-12.005 2.179-5.946 4.166-11.957 5.175-18.225.593-3.706 1.089-7.428.849-11.215l.016-.049Z"
        fill="currentColor" />
    <path
        d="M98.818 189.243c.032-7.784-1.362-14.165-3.413-20.401-1.377-4.157-2.675-8.363-5.399-11.892-1.09-3.303-3.316-5.962-5.014-8.927-.945-1.644-2.26-3.094-3.413-4.625-2.771-3.658-5.398-7.412-8.522-10.796-3.557-3.851-7.13-7.654-10.83-11.36-3.845-3.852-8.043-7.3-11.872-11.151-3.076-3.094-6.056-6.285-9.18-9.33-3.364-3.271-6.825-6.446-10.301-9.588-.545-.5-1.105-.902-1.538-1.563a7.827 7.827 0 0 0-1.97-2.079c-1.49-1.08-2.74-2.352-4.006-3.674-5.479-5.672-11.022-11.296-16.18-17.274-2.58-2.98-5.111-5.994-7.643-9.008-3.091-3.674-5.975-7.525-9.003-11.263-.545-.66-1.106-1.322-1.57-2.03-.609-.935-1.25-1.725-2.531-1.676-.385 0-.817-.226-1.17-.436-.56-.338-1.057-.757-1.746-.354-.77.451-1.378 1.064-1.474 1.982-.128 1.192 0 2.32.801 3.336 3.284 4.077 6.488 8.218 9.82 12.262 2.788 3.368 5.752 6.591 8.572 9.943C4.952 73.77 9.07 77.815 13.09 81.956c2.307 2.369 4.662 4.673 6.969 7.042 1.554 1.611 2.98 3.367 4.982 4.495.273.162.481.42.705.661 4.646 4.883 9.533 9.491 14.307 14.229 3.412 3.384 6.889 6.687 10.381 9.99 4.502 4.254 8.972 8.525 13.25 13.037 5.158 5.446 9.788 11.295 14.146 17.387 1.25 1.74 2.45 3.48 3.636 5.269 3.092 4.673 5.415 9.749 7.21 15.002 1.377 4.028 2.435 8.186 3.076 12.456 1.041 7.074.32 13.938-2.003 20.577-2.643 7.51-6.328 14.519-11.327 20.787-3.011 3.771-6.168 7.381-9.596 10.781-2.275 2.256-4.342 4.705-6.6 6.977-5.143 5.173-10.75 9.765-17.063 13.455-5.43 3.175-10.75 6.575-16.229 9.652-5.495 3.078-11.166 5.834-16.965 8.315-3.525 1.515-7.002 3.159-10.494 4.754-1.858.854-3.477 2.079-4.886 3.561-.721.741-1.01 1.466-.561 2.578.85 2.111 1.01 2.337 3.284 1.724 1.859-.483 3.749-.934 5.48-1.74 7.753-3.577 15.684-6.784 23.213-10.861 8.267-4.479 16.438-9.12 24.32-14.244 3.94-2.563 7.561-5.544 11.038-8.75 5.27-4.883 10.013-10.249 14.98-15.405 7.369-7.654 12.752-16.646 16.725-26.459 2.467-6.091 3.925-12.473 3.765-17.951l-.016-.032Z"
        fill="currentColor" />
    <path
        d="M59.056 182.7c0-4.77-.72-8.83-1.618-12.939-.961-4.367-2.42-8.46-4.582-12.279-2.259-3.996-4.95-7.719-7.85-11.296-2.948-3.658-6.216-7.026-9.132-10.7-.192-.258-.368-.531-.609-.741-3.62-3.158-6.76-6.832-10.573-9.781-1.25-.967-2.564-1.869-3.54-3.191-.497-.66-1.266-1.176-1.987-1.595-1.426-.822-2.596-1.837-3.477-3.239-.224-.354-.56-.644-.897-.902-6.408-5.028-11.551-11.344-17.318-17.033-.69-.676-1.458-1.273-2.067-2.014-1.041-1.273-2.58-1.402-3.941-1.934-.273-.112-.64-.032-.945.033-.978.225-1.89 1.24-1.97 2.288-.097 1.176-.257 2.594 1.04 3.126 2.083.87 3.397 2.562 4.887 4.061 2.547 2.562 4.854 5.398 7.45 7.912 2.9 2.82 5.719 5.752 9.051 8.105.353.242.721.467 1.01.773 3.956 4.222 8.57 7.703 12.768 11.667 3.332 3.158 6.504 6.478 9.452 10.007 2.34 2.771 4.646 5.575 6.97 8.347 4.757 5.688 8.122 12.133 9.852 19.256 1.282 5.269 1.826 10.683 1.153 16.243-1.09 9.12-4.245 17.483-8.683 25.379-2.035 3.642-4.854 6.832-7.978 9.588-3.285 2.884-6.553 5.801-9.981 8.54a66.966 66.966 0 0 1-8.17 5.624c-2.692 1.563-5.255 3.239-7.578 5.334-1.667 1.498-3.477 2.836-5.207 4.27-.497.403-.945.87-1.378 1.337-.56.629-.32 1.435.433 1.886a2.424 2.424 0 0 0 1.842.274c1.234-.306 2.483-.645 3.669-1.096 4.005-1.515 7.706-3.658 11.406-5.785 6.152-3.545 11.487-8.137 16.758-12.843a125.511 125.511 0 0 0 3.076-2.804c4.021-3.738 7.434-7.912 9.997-12.842 3.428-6.607 6.104-13.456 7.61-20.739.737-3.577 1.233-7.187 1.057-10.281v-.016Z"
        fill="currentColor" />
    <path
        d="M-2.753 137.42c-1.057-.065-1.778.661-1.794 1.74 0 1.112.304 2.143.913 3.046.785 1.144 1.554 2.336 2.563 3.255 3.076 2.804 6.072 5.72 8.668 8.943 3.844 4.754 7.08 9.926 8.73 15.937.145.515.273 1.047.321 1.579.529 5.833.192 11.586-1.954 17.081-.93 2.385-2.275 4.624-4.037 6.51-3.14 3.351-6.008 6.961-9.549 9.926-.8.677-1.41 1.595-2.147 2.385-.8.854-.977 1.869-.929 2.981.032.693.257 1.241.913 1.563.673.338 1.33.677 1.955 1.079 1.506.951 2.307.983 3.156-.467 1.218-2.095 2.996-3.609 4.678-5.221 2.948-2.82 5.575-5.914 8.17-9.04 3.67-4.399 5.464-9.636 6.265-15.26a76.95 76.95 0 0 0 .593-5.43c.352-5.366-.962-10.426-3.173-15.26a54.127 54.127 0 0 0-5.88-9.91 65.167 65.167 0 0 0-4.02-4.899 54.447 54.447 0 0 0-4.342-4.254c-.897-.789-1.698-1.595-2.403-2.546-.77-1.031-1.778-1.821-2.804-2.61-1.17-.902-2.419-1.289-3.893-1.16v.032Z"
        fill="currentColor" />
</svg>