<svg fill="none" xmlns="http://www.w3.org/2000/svg" viewBox="0 0 209 147">
    <path
        d="M92.809 54.824c-15.153 4.212-25.79 13.318-32.633 27.044.705.696 1.407.557 2.092.631 5.52.607 11.029 1.252 15.915 4.22 6.195 3.766 10.29 9.067 11.416 16.333.492 3.204-.555 6.268-1.9 9.121-2.432 5.163-6.58 7.907-12.27 8.477-1.336.133-2.807-.027-4.042.765-.212.14-.531.257-.74.19-1.752-.616-3.54-.408-5.341-.383-2.512.027-4.455-1.359-6.211-2.936-7.033-6.349-9.913-14.326-9.203-23.735.166-2.168.3-4.337.696-6.64-1.98-.23-3.929.25-5.633.651-3.239.732-6.533 1.602-9.556 3.123-1.169.584-2.337 1.199-3.55 1.664-5.035 1.938-9.155 5.41-13.494 8.427-2.513 1.748-4.838 3.983-6.992 6.273-.236.248-.428.551-.683.793-.547.502-1.24.842-1.91.491-.821-.431-.447-1.239-.202-1.869.324-.814.692-1.634 1.206-2.324 3.294-4.406 6.86-8.59 11.475-11.684 3.305-2.202 6.566-4.492 10.299-5.982 6.078-2.426 12.242-4.533 18.885-4.66 1.237-.02 1.905-.441 2.325-1.62 2.153-6.046 6.075-11.011 10.322-15.654 4.68-5.118 10.27-9.171 16.499-12.29 3.28-1.636 6.771-2.798 10.303-3.727 1.585-.419 3.287-.393 4.938-.467 1.25-.057 2.16-.557 2.84-1.57 4.891-7.26 12.081-11.52 19.812-14.969 5.501-2.445 11.181-4.509 17.195-5.37 3.925-.563 7.899-1.34 11.809-.949 3.2.33 6.453.24 9.663 1.543 2.428.979 5.307 1.174 7.811 2.24 1.369.576 2.787.969 4.155 1.482 2.806 1.07 5.311 2.813 8.081 3.996.77.331.775 1.417.531 2.11-.292.814-.932 1.474-1.995 1.372-2.332-.239-4.697-.571-6.793-1.61a54.973 54.973 0 0 0-10.694-3.981c-2.746-.706-5.723-1.308-8.715-1.019-1.38.14-2.79-.115-4.19-.106-5.331.07-10.481 1.26-15.584 2.666-4.315 1.189-8.435 2.94-12.331 5.099-4.214 2.337-8.224 5.01-11.336 8.787-1.135 1.387-1.14 1.5.366 2.527 2.088 1.422 4 2.903 5.162 5.29 1.452 3.011 1.747 6.016.663 9.13-.914 2.679-2.237 5.205-4.397 7.056-2.57 2.219-5.487 3.732-9.074 2.433-.504-.183-1.027-.31-1.546-.153-1.033.325-1.756-.315-2.321-.893-2.114-2.15-3.366-4.68-3.368-7.82.008-2.845.714-5.528 1.52-8.2.28-.9.81-1.742.706-3.36l.019.037ZM81.182 99.449c-2.434-5.08-6.806-7.57-11.213-9.76-2.728-1.345-5.88-1.89-8.961-2.265-2.207-.272-2.77.048-3.078 2.275-.824 5.837-1.032 11.673 1.214 17.276 1.825 4.54 4.696 8.133 9.869 9.14 2.297.446 4.398-.412 6.585-.887 3.157-.706 4.906-2.803 6.159-5.498 1.688-3.629 1.054-7.139-.568-10.268l-.007-.013Zm20.323-29.47c1.893-.956 4.028-3.899 4.629-6.417.746-3.098-.862-6.723-3.655-8.289-1.339-.733-1.797-.671-2.334.835-.945 2.617-2.023 5.19-2.597 7.947a8.618 8.618 0 0 0 .23 4.381c.714 2.254 1.653 2.577 3.727 1.543ZM179.555 52.071c-.126-.614-.207-1.14-.351-1.635-.202-.701-1.025-1.352-.173-2.121.721-.655 1.619-.69 2.476-.466.661.181 1.274.545 1.899.84 3.187 1.473 5.967 3.598 8.926 5.457 2.08 1.315 1.871 3.553 2.351 5.501.138.577-.579 1.055-1.194 1.181-1.04.218-2.058.11-3.044-.426-3.796-2.044-6.979-4.925-10.299-7.609-.266-.21-.42-.541-.585-.74l-.006.018ZM171.112 18.253c-1.214.987-1.954-.086-2.726-.668-.842-.625-.424-1.408.084-2.048.54-.671 1.097-1.368 1.738-1.934 1.83-1.602 3.684-3.186 5.59-4.7 1.943-1.535 2.729-1.45 4.323.242 1.036 1.095 1.109 2.067.121 3.095-.478.482-1.09.86-1.683 1.211-2.552 1.484-5.118 2.975-7.435 4.796l-.012.006Z"
        fill="currentColor" />
    <path
        d="M165.962 49.973c-1.429-1.523-.852-3.903-1.483-5.931-.305-.964 1.412-2.508 2.519-2.32 1.34.244 2.292.592 2.92 2.337.964 2.647.755 5.437 1.694 8.034.317.894-1.244 1.727-2.478 1.508-1.076-.19-1.556-1.064-2.173-1.773-.387-.448-.576-1.062-.987-1.861l-.012.006ZM155.196 48.964c-.87-2.157-1.065-4.472-1.86-6.668-.576-1.583.069-2.293 1.422-3.225 1.179-.81 2.157-.318 3.149.23.347.185.729.652.752 1.004.063 1.814 1.011 3.537.71 5.35-.147.911.006 1.701.165 2.566.366 1.912-.86 2.936-2.701 2.302-.781-.261-1.364-.751-1.63-1.546l-.007-.013ZM181.931 16.362c.794-.36 1.581-.733 2.369-1.074 2.725-1.179 3.009-1.056 4.661 1.269.662.922.575 1.583-.241 2.207a6.44 6.44 0 0 1-1.56.896c-2.258.89-4.535 1.744-6.792 2.634-.576.232-1.145.446-1.757.207-2.049-.794-2.354-2.31-.718-3.766 1.176-1.062 2.652-1.63 4.044-2.36l-.006-.013ZM180.436 39.827c-.533-1.037-.377-1.716.997-1.9 2.765-.363 5.574-.274 8.264.54 1.386.424 1.818 1.512 1.509 3.155-.243 1.277-1.318 1.245-2.253 1.267-2.279.05-4.49-.505-6.711-.927-1.045-.19-1.237-1.117-1.813-2.147l.007.012ZM182.302 26.4c1.665-.57 3.586-1.194 5.588-1.353 1.562-.123 1.981.261 2.267 1.74.299 1.536.054 2.135-1.335 2.596-2.316.778-4.815.83-7.142 1.646-.576.2-1.132-.145-1.298-.928-.404-1.987-.085-2.75 1.908-3.694l.012-.007Z"
        fill="currentColor" />
</svg>