<svg width="500" height="500" viewBox="0 0 500 500" fill="none" xmlns="http://www.w3.org/2000/svg">
<rect width="500" height="500" fill="#FFFCE2"/>
<path d="M138.841 383.572C145.018 370.8 148.153 356.172 150.045 342.119C143.497 340.337 134.89 339.186 128.138 339.984C138.915 333.784 149.989 323.054 156.871 312.659C146.187 312.752 133.684 308.965 123.779 304.992C136.652 299.33 147.299 291.366 155.331 279.783C141.79 272.673 128.305 264.709 114.746 257.581C130.271 255.353 146.613 253.645 162.139 251.399C143.441 245.124 122.518 234.543 104.989 225.447C120.255 225.187 135.187 224.649 150.453 224.389C136.541 217.613 125.838 206.494 114.56 195.95C129.548 196.302 143.478 196.692 158.466 197.045C155.98 181.266 152.178 166.378 147.726 151.044C165.904 153.513 181.949 163.241 198.272 171.613C198.328 158.173 199.886 146.069 199.942 132.629C213.334 142.969 224.074 157.746 234.74 170.87C241.436 157.764 245.517 140.482 246.259 125.816C251.249 133.279 255.107 140.871 256.943 149.652C263.343 137.864 270.855 129.789 277.236 118.001L278.405 186.779C300.274 180.022 318.99 171.297 336.983 157.189C331.659 171.743 326.095 186.185 320.771 200.739C340.155 199.755 355.829 198.827 374.749 194.335C367.7 201.222 362.451 209.872 359.576 219.303C369.017 218.857 377.643 219.562 387.084 219.117C379.572 219.859 372.746 225.54 368.925 232.093C384.803 236.418 396.396 243.621 410.493 252.067C398.789 252.55 387.14 253.608 375.547 255.204C380.091 259.79 384.265 264.765 388.086 270.018C417.82 266.361 447.536 262.741 477.27 259.066C453.119 245.254 426.816 234.116 399.141 231.35C418.395 227.415 439.133 221.159 458.387 217.186C436.11 212.285 413.665 208.684 391.388 203.746C401.052 187.113 414.166 171.353 426.241 156.353C399.197 162.145 372.338 164.243 344.737 166.229C358.815 146.645 372.931 127.079 387.01 107.494C357.665 122.586 328.933 137.419 299.588 152.492L302.834 26C289.237 49.7428 273.73 72.3904 256.461 93.6085C251.397 82.6746 247.205 73.6527 240.472 63.6841C234.963 76.6786 228.192 88.1508 220.086 99.716C200.573 78.6649 175.29 60.2869 148.616 49.7243C152.623 78.3678 157.409 109.629 161.415 138.291C145.649 130.402 126.191 125 110.405 117.11C114.894 130.179 117.918 145.048 122.406 158.117C96.178 147.424 70.1536 140.89 41.9403 137.938C54.9804 158.08 72.1012 180.115 88.5172 197.583C66.8333 198.567 43.6654 201.463 22 202.447C43.3686 216.871 69.8568 231.536 94.286 239.852C78.5007 243.12 58.7644 248.076 43.0162 251.343C63.1235 265.916 90.3721 279.95 113.15 289.881C94.3602 297.585 74.7538 306.588 55.9635 314.292C74.7167 314.144 97.1797 315.629 115.599 318.84C93.5626 337.942 73.7336 363.393 59.7661 388.955C83.917 381.994 106.436 374.643 130.086 365.955C120.014 385.391 108.105 405.05 98.0515 424.467C121.702 418.415 144.591 409.505 166.424 398.682C166.591 398.59 166.795 398.515 166.999 398.422C162.102 387.563 158.596 375.942 156.871 363.727C150.601 370.094 144.517 376.685 138.748 383.497L138.878 383.534L138.841 383.572Z" fill="#FF4A00"/>
<path d="M319.861 236.956C321.753 237.736 323.664 238.571 325.519 239.444C323.664 238.571 321.809 237.699 319.917 236.956H319.88H319.861Z" fill="#FF4A00"/>
<path d="M311.961 234.098C313.612 234.636 315.263 235.267 316.858 235.861C315.207 235.23 313.612 234.655 311.961 234.098Z" fill="#FF4A00"/>
<path d="M341.568 248.596C342.347 249.115 343.052 249.672 343.813 250.229C343.071 249.71 342.329 249.115 341.568 248.596Z" fill="#FF4A00"/>
<path d="M303.814 231.777C305.094 232.074 306.319 232.464 307.561 232.817C306.319 232.464 305.094 232.074 303.852 231.777H303.814Z" fill="#FF4A00"/>
<path d="M334.645 244.252C335.757 244.883 336.833 245.644 337.946 246.331C336.833 245.663 335.757 244.939 334.645 244.252Z" fill="#FF4A00"/>
<path d="M336.168 242.34C336.168 242.34 336.465 242.507 336.576 242.581C336.446 242.507 336.279 242.414 336.168 242.34Z" fill="#FF4A00"/>
<path d="M312.938 231.87C310.434 231.053 307.837 230.311 305.24 229.661C306.427 229.977 307.577 230.311 308.746 230.664C310.137 231.053 311.547 231.443 312.901 231.87H312.938Z" fill="#FF4A00"/>
<path d="M295.807 227.619C298.719 228.102 301.631 228.714 304.525 229.401C301.65 228.714 298.737 228.102 295.807 227.619Z" fill="#FF4A00"/>
<path d="M343.697 247.129C343.697 247.129 344.031 247.371 344.198 247.482C344.031 247.371 343.864 247.241 343.697 247.129Z" fill="#FF4A00"/>
<path d="M327.781 237.885C328.189 238.089 328.597 238.237 328.987 238.441C328.579 238.237 328.171 238.089 327.781 237.885Z" fill="#FF4A00"/>
<path d="M369 232.111C372.784 225.577 379.592 219.878 387.16 219.135C377.718 219.581 369.093 218.876 359.651 219.321C362.527 209.891 367.776 201.277 374.825 194.353C355.942 198.845 340.286 199.737 320.847 200.758C326.17 186.204 331.735 171.761 337.059 157.207C319.047 171.316 300.313 180.041 278.48 186.798L277.312 118.02C270.912 129.808 263.4 137.883 257.019 149.671C255.146 140.89 251.343 133.26 246.335 125.835C245.611 140.519 241.512 157.801 234.816 170.889C224.113 157.764 213.373 142.988 200.018 132.648C199.962 146.088 198.404 158.191 198.348 171.631C182.043 163.259 165.943 153.55 147.802 151.063C152.235 166.396 156.056 181.284 158.542 197.063C143.554 196.711 129.624 196.321 114.636 195.968C125.914 206.549 136.654 217.632 150.528 224.408C135.262 224.667 120.33 225.206 105.064 225.466C122.575 234.543 143.517 245.124 162.214 251.418C146.689 253.645 130.347 255.353 114.821 257.599C128.362 264.709 141.847 272.673 155.407 279.801C147.375 291.366 136.746 299.33 123.855 305.011C133.741 308.983 146.299 312.733 156.946 312.677C150.083 323.073 139.009 333.747 128.214 340.003C134.947 339.186 143.572 340.356 150.12 342.138C148.228 356.19 145.038 370.818 138.917 383.59C144.704 376.777 150.77 370.15 157.039 363.82C156.297 358.511 155.796 353.146 155.704 347.651C155.11 312.51 168.688 280.488 191.077 256.875C191.689 256.244 192.245 255.631 192.802 255.037L192.505 254.592L186.458 245.273L186.328 245.106C185.66 244.382 185.067 243.602 184.529 242.711C184.195 242.136 183.861 241.542 183.602 240.892L183.064 240.038L183.268 239.945C179.428 228.956 188.294 213.102 204.562 201.927C193.915 191.791 182.544 187.503 170.654 189.397L169.226 180.523C184.492 178.091 199.461 183.865 212.538 197.156C230.03 188.171 248.041 187.912 255.832 196.506C256.463 197.23 257.093 197.954 257.594 198.808C258.095 199.699 269.057 217.78 269.057 217.78H269.132C269.985 217.687 270.894 217.632 271.784 217.52C275.142 217.223 278.536 216.964 281.968 216.889C318.565 216.258 351.842 231.053 375.678 255.242C387.271 253.645 398.92 252.587 410.624 252.104C396.471 243.658 384.897 236.474 369.056 232.13L368.982 232.056L369 232.111Z" fill="#FFD169"/>
<path d="M259.041 201.37L269.02 217.706C269.02 217.706 258.076 199.57 257.557 198.734C258.057 199.625 258.484 200.516 258.837 201.5L259.041 201.407V201.37Z" fill="#FFD169"/>
<path d="M183.207 239.871L183.021 239.945L183.559 240.799L183.467 240.52L183.207 239.871Z" fill="#FFD169"/>
<path d="M183.56 240.799C183.819 241.412 184.116 242.024 184.487 242.618C184.06 241.931 183.726 241.244 183.43 240.502L183.522 240.78H183.56V240.799Z" fill="#FFD169"/>
<path d="M386.583 270.204C381.315 270.872 375.639 271.299 369.703 271.633C381.593 286.911 389.792 305.085 393.112 324.168L390.701 324.577C387.343 305.345 378.922 287.041 366.754 271.801C344.662 273.156 319.917 274.195 302.592 283.254C265.995 302.43 231.697 327.027 206.137 359.885C200.442 367.236 196.51 376.239 190.889 383.368C185.158 390.682 175.364 394.413 167.035 398.478C187.532 443.736 233.423 474.905 286.269 473.995C357.238 472.788 413.757 414.22 412.552 343.233C412.088 315.833 403.054 290.624 388.085 270.018C387.547 270.074 387.065 270.167 386.527 270.204L386.564 270.167L386.583 270.204Z" fill="#1B2CEA"/>
<path d="M190.986 383.368C196.551 376.258 200.502 367.217 206.233 359.885C231.794 327.046 266.091 302.449 302.689 283.254C319.977 274.195 344.758 273.156 366.85 271.8C364.124 268.403 361.286 265.136 358.206 262.073C357.001 260.904 355.758 259.771 354.497 258.657C352.456 256.801 350.379 255.038 348.227 253.348C348.19 253.311 348.097 253.274 348.06 253.237C346.687 252.197 345.278 251.195 343.868 250.192C343.126 249.673 342.384 249.079 341.624 248.559C341.457 248.447 341.253 248.318 341.086 248.206C340.084 247.519 339.064 246.925 338.025 246.294C336.912 245.626 335.836 244.902 334.723 244.215C334.352 243.974 333.981 243.769 333.573 243.584C331.551 242.47 329.529 241.356 327.452 240.335C326.84 240.02 326.172 239.741 325.504 239.426C323.649 238.553 321.794 237.681 319.847 236.938C318.864 236.548 317.862 236.196 316.879 235.843C315.228 235.212 313.633 234.636 311.982 234.079C310.535 233.615 309.014 233.225 307.586 232.798C306.343 232.446 305.119 232.056 303.839 231.759C301.038 231.072 298.256 230.496 295.418 230.014L295.826 227.638C298.738 228.12 301.65 228.733 304.544 229.42C304.785 229.494 305.082 229.568 305.323 229.661C307.92 230.311 310.461 231.053 313.021 231.87C314.95 232.501 316.898 233.244 318.79 233.986C319.569 234.302 320.403 234.58 321.182 234.896C323.445 235.843 325.634 236.827 327.823 237.903C328.231 238.108 328.639 238.256 329.029 238.46C331.459 239.648 333.814 240.966 336.17 242.321C336.3 242.396 336.467 242.489 336.578 242.563C338.489 243.677 340.344 244.828 342.161 246.071C342.662 246.424 343.2 246.758 343.701 247.111C343.868 247.222 344.035 247.352 344.202 247.464C349.748 251.306 355.035 255.594 359.857 260.384C363.4 263.892 366.646 267.716 369.744 271.652C375.68 271.262 381.356 270.835 386.624 270.223C387.162 270.167 387.644 270.074 388.182 270.037C384.361 264.783 380.187 259.808 375.643 255.223C351.807 231.053 318.567 216.258 281.932 216.871C278.501 216.927 275.106 217.149 271.749 217.502L278.76 230.051C282.081 235.156 282.674 241.505 280.319 247.111C276.943 255.205 270.617 266.621 259.71 275.235C249.972 282.939 238.49 286.911 225.45 287.134C220.906 287.208 216.194 286.837 211.316 286.02C208.366 285.538 205.751 283.737 204.193 281.138L191.042 256.894C168.597 280.507 155.056 312.529 155.668 347.67C155.761 353.165 156.225 358.567 157.004 363.839C158.766 376.053 162.235 387.711 167.132 398.534C175.46 394.45 185.254 390.774 190.986 383.423V383.46V383.368Z" fill="#1B2CEA"/>
<path d="M219.752 222.031C219.752 222.031 214.874 212.248 206.211 203.412C205.952 203.134 205.674 202.929 205.414 202.688C188.423 214.29 180.187 230.775 186.586 241.449C193.375 252.773 213.835 252.531 233.163 240.948C252.121 229.568 261.97 211.042 255.144 199.681C251.824 194.13 245.09 191.457 236.78 191.587C229.732 191.699 221.589 193.889 213.39 198.047C222.609 207.719 227.562 217.725 227.766 218.17L219.734 222.124V222.05L219.752 222.031ZM248.095 210.355C248.503 217.892 241.993 225.094 234.517 225.503L234.388 223.09C240.639 222.737 246.036 216.741 245.684 210.485C245.369 204.229 239.377 198.827 233.126 199.143L232.996 196.729C240.527 196.395 247.724 202.874 248.095 210.355Z" fill="#1B2CEA"/>
<path d="M206.281 279.82C207.505 281.806 209.49 283.161 211.753 283.533C216.687 284.349 221.269 284.721 225.535 284.646C257.087 284.108 271.852 261.071 278.103 246.146C280.144 241.282 279.606 235.75 276.749 231.332L269.144 217.743H269.07L259.091 201.407L258.887 201.5C258.534 200.572 258.126 199.625 257.607 198.734C257.106 197.88 256.512 197.156 255.844 196.432C256.345 197.045 256.809 197.695 257.236 198.381C264.859 211.116 254.843 230.701 234.42 242.971C224.534 248.911 214.313 251.956 205.502 252.104C197.433 252.234 190.644 249.932 186.434 245.18L192.481 254.499H192.518L206.263 279.838H206.3L206.281 279.82ZM265.286 229.568L271.982 240.595L269.923 241.857L263.227 230.831L265.286 229.568Z" fill="#1B2CEA"/>
<path d="M276.698 231.294C279.592 235.713 280.111 241.282 278.052 246.108C271.801 261.052 256.999 284.071 225.484 284.609C221.18 284.683 216.636 284.349 211.702 283.495C209.439 283.124 207.454 281.769 206.23 279.782L192.485 254.443H192.448L192.745 254.926C192.132 255.501 191.576 256.17 191.02 256.764L204.171 281.008C205.766 283.607 208.344 285.37 211.294 285.89C216.172 286.707 220.902 287.078 225.428 287.004C238.487 286.781 249.969 282.808 259.688 275.104C270.558 266.528 276.902 255.056 280.297 246.981C282.615 241.412 282.059 235.026 278.738 229.921L271.727 217.372C270.874 217.465 269.965 217.52 269.074 217.613L276.679 231.202V231.276L276.698 231.294Z" fill="#7DA4B0"/>
<path d="M205.543 252.105C214.298 251.956 224.575 248.912 234.461 242.971C254.884 230.701 264.919 211.116 257.277 198.382C256.85 197.695 256.387 197.045 255.886 196.432C248.076 187.8 230.084 188.097 212.592 197.082L212.833 197.324C213.037 197.528 213.241 197.769 213.464 197.973C221.625 193.815 229.806 191.624 236.854 191.513C245.164 191.365 251.879 194.038 255.218 199.607C262.044 210.968 252.157 229.494 233.237 240.874C213.909 252.476 193.449 252.699 186.66 241.375C180.261 230.701 188.497 214.216 205.488 202.614C205.191 202.336 204.913 202.057 204.579 201.76C188.274 212.935 179.445 228.77 183.284 239.778L183.544 240.428C183.841 241.152 184.175 241.858 184.601 242.544C185.102 243.398 185.733 244.197 186.401 244.939L186.53 245.106C190.741 249.821 197.586 252.179 205.599 252.03L205.562 252.105H205.543Z" fill="#7DA4B0"/>
<path d="M245.682 210.485C245.997 216.741 240.618 222.737 234.385 223.089L234.515 225.503C242.009 225.094 248.501 217.854 248.093 210.355C247.685 202.818 240.488 196.358 232.994 196.729L233.124 199.142C239.375 198.827 245.366 204.266 245.682 210.485Z" fill="#FFFCE2"/>
<path d="M212.535 197.045C199.458 183.753 184.489 177.98 169.223 180.412L170.651 189.285C182.485 187.41 193.912 191.68 204.559 201.816C205.764 200.98 207.026 200.182 208.324 199.384C209.734 198.548 211.162 197.787 212.591 197.063H212.553L212.535 197.045Z" fill="#0F0F0F"/>
<path d="M205.436 202.688C205.677 202.93 205.973 203.171 206.233 203.412C214.896 212.286 219.737 221.939 219.774 222.032L227.806 218.077C227.602 217.632 222.631 207.645 213.43 197.955C211.928 198.716 210.425 199.514 208.923 200.442C207.699 201.166 206.567 201.909 205.436 202.67V202.688Z" fill="#0F0F0F"/>
<path d="M208.92 200.423C210.422 199.532 211.925 198.734 213.427 197.936C213.223 197.731 213.019 197.49 212.796 197.286L212.555 197.045C211.127 197.769 209.717 198.53 208.289 199.365C206.99 200.126 205.729 200.961 204.523 201.797C204.82 202.075 205.098 202.354 205.432 202.651C206.564 201.89 207.695 201.129 208.92 200.423Z" fill="#0F0F0F"/>
<path d="M265.282 229.516L263.221 230.768L269.907 241.799L271.968 240.547L265.282 229.516Z" fill="#FFFCE2"/>
<path d="M351.512 253.014C350.881 252.531 350.269 252.049 349.639 251.529C350.269 252.012 350.881 252.494 351.512 253.014Z" fill="#FFFCE2"/>
<path d="M345.069 248.132C344.772 247.927 344.494 247.686 344.197 247.482C344.03 247.371 343.863 247.241 343.696 247.129C343.492 247.018 343.288 246.888 343.084 246.721C343.752 247.166 344.401 247.649 345.069 248.113V248.132Z" fill="#FFFCE2"/>
<path d="M343.694 247.129C343.193 246.776 342.655 246.405 342.154 246.09C342.488 246.294 342.785 246.535 343.063 246.721C343.267 246.832 343.471 246.962 343.675 247.129H343.694Z" fill="#FFFCE2"/>
<path d="M349.638 251.529C350.269 252.011 350.881 252.494 351.511 253.014C353.552 254.666 355.5 256.355 357.41 258.156C358.208 258.917 359.08 259.604 359.859 260.402C355.073 255.65 349.805 251.361 344.203 247.482C344.5 247.686 344.778 247.927 345.075 248.131C346.615 249.245 348.136 250.378 349.638 251.529Z" fill="#FFFCE2"/>
<path d="M390.759 324.614L393.171 324.205C389.851 305.122 381.652 286.948 369.762 271.67C368.779 271.726 367.796 271.782 366.812 271.838C379.018 287.078 387.439 305.363 390.759 324.614Z" fill="#FFFCE2"/>
<path d="M357.404 258.119C356.421 258.305 355.401 258.472 354.418 258.657C355.661 259.79 356.959 260.867 358.128 262.073C361.207 265.136 364.045 268.403 366.772 271.8C367.755 271.745 368.738 271.689 369.721 271.633C366.66 267.679 363.414 263.874 359.834 260.365C359.037 259.604 358.221 258.88 357.386 258.119H357.423H357.404Z" fill="#FFFCE2"/>
<path d="M351.508 253.014C350.877 252.531 350.265 252.049 349.634 251.529C348.132 250.359 346.611 249.208 345.071 248.132C344.403 247.649 343.736 247.166 343.086 246.74C340.972 245.292 338.783 243.899 336.594 242.581C336.464 242.507 336.297 242.414 336.186 242.34C333.83 240.985 331.475 239.667 329.045 238.442C328.637 238.237 328.228 238.089 327.839 237.885C325.65 236.808 323.424 235.787 321.161 234.877C320.382 234.562 319.547 234.283 318.768 233.968C316.839 233.225 314.929 232.483 313 231.852C311.646 231.425 310.236 231.035 308.845 230.645C307.695 230.292 306.507 229.939 305.339 229.642C305.098 229.568 304.838 229.494 304.56 229.401C301.685 228.714 298.772 228.102 295.842 227.619L295.434 229.995C298.272 230.478 301.054 231.053 303.855 231.74C305.079 232.056 306.322 232.427 307.565 232.78C309.049 233.207 310.533 233.596 311.961 234.061C313.612 234.599 315.263 235.23 316.858 235.824C317.841 236.177 318.843 236.53 319.826 236.919C321.718 237.699 323.573 238.534 325.428 239.407C328.562 240.873 331.623 242.451 334.591 244.159C335.704 244.79 336.78 245.551 337.893 246.238C339.098 246.999 340.341 247.705 341.491 248.503C342.27 249.023 342.975 249.58 343.736 250.137C345.182 251.176 346.685 252.216 348.095 253.292C350.246 254.982 352.324 256.745 354.364 258.602C355.347 258.416 356.368 258.249 357.351 258.063C355.44 256.3 353.437 254.573 351.452 252.921L351.489 252.958L351.508 253.014Z" fill="#FFFCE2"/>
<path d="M347.987 253.274C347.987 253.274 348.117 253.348 348.154 253.385C346.744 252.253 345.297 251.269 343.795 250.229C345.205 251.232 346.614 252.197 347.987 253.274Z" fill="#FFFCE2"/>
<path d="M311.961 234.098C310.514 233.633 308.993 233.244 307.564 232.817C309.048 233.244 310.532 233.633 311.961 234.098Z" fill="#FFFCE2"/>
<path d="M341.027 248.224C341.027 248.224 341.398 248.466 341.565 248.577C340.397 247.779 339.172 247.055 337.967 246.312C339.006 246.944 340.026 247.556 341.027 248.224Z" fill="#FFFCE2"/>
<path d="M327.412 240.354C329.47 241.375 331.492 242.451 333.533 243.602C333.904 243.807 334.275 244.048 334.683 244.233C331.696 242.488 328.654 240.929 325.52 239.481C326.187 239.797 326.799 240.075 327.467 240.391L327.43 240.354H327.412Z" fill="#FFFCE2"/>
<path d="M357.406 258.119C355.496 256.356 353.493 254.629 351.508 252.977C353.548 254.629 355.496 256.318 357.406 258.119Z" fill="#FFFCE2"/>
<path d="M349.633 251.529C348.131 250.359 346.61 249.209 345.07 248.132C346.61 249.246 348.131 250.378 349.633 251.529Z" fill="#FFFCE2"/>
<path d="M336.163 242.284C333.807 240.929 331.451 239.611 329.021 238.423C331.451 239.611 333.807 240.929 336.163 242.322V242.284Z" fill="#FFFCE2"/>
<path d="M342.177 246.09C340.359 244.883 338.486 243.695 336.594 242.581C338.82 243.899 340.971 245.291 343.086 246.739C342.789 246.535 342.455 246.294 342.177 246.108V246.09Z" fill="#FFFCE2"/>
<path d="M304.504 229.438C304.745 229.513 305.005 229.587 305.283 229.68C305.042 229.605 304.782 229.531 304.504 229.438Z" fill="#FFFCE2"/>
<path d="M327.779 237.885C325.59 236.808 323.365 235.787 321.139 234.878C323.402 235.824 325.59 236.808 327.816 237.885H327.779Z" fill="#FFFCE2"/>
<path d="M336.576 242.581C338.487 243.695 340.342 244.902 342.159 246.09C340.342 244.846 338.468 243.695 336.576 242.581Z" fill="#FFFCE2"/>
</svg>
