<svg width="7720" height="6858" viewBox="0 0 7720 6858" fill="none" xmlns="http://www.w3.org/2000/svg">
<g clip-path="url(#clip0_2969_980)">
<path d="M2328 -4C2328 376.44 2308.56 376.44 2308.56 756.89C2308.56 1137.33 2328.56 1137.33 2328.56 1517.78C2328.56 1898.22 2308.56 1898.22 2308.56 2278.67C2308.56 2659.11 2328.56 2659.11 2328.56 3039.55C2328.56 3420 2308.56 3420 2308.56 3800.44C2308.56 4180.88 2328.56 4180.88 2328.56 4561.33C2328.56 4941.77 2308.56 4941.77 2308.56 5322.22C2308.56 5702.67 2328.56 5702.67 2328.56 6083.11C2328.56 6463.56 2328 6478.06 2328 6858.5" stroke="#0F0F0F" stroke-opacity="0.1" stroke-width="11.34" stroke-miterlimit="10"/>
<path d="M2592.06 -4C2592.06 376.44 2588.06 376.44 2588.06 756.89C2588.06 1137.33 2592.06 1137.33 2592.06 1517.78C2592.06 1898.22 2588.06 1898.22 2588.06 2278.67C2588.06 2659.11 2592.06 2659.11 2592.06 3039.55C2592.06 3420 2588.06 3420 2588.06 3800.44C2588.06 4180.88 2592.06 4180.88 2592.06 4561.33C2592.06 4941.77 2588.06 4941.77 2588.06 5322.22C2588.06 5702.67 2592.06 5702.67 2592.06 6083.11C2592.06 6463.56 2592 6478.06 2592 6858.5" stroke="#0F0F0F" stroke-opacity="0.1" stroke-width="11.34" stroke-miterlimit="10"/>
<path d="M2830 -0.5C2888 1090.5 2888.56 2179 2837.56 3270C2806.56 3841 2787.56 4412 2785.56 4984C2782.56 5605 2798 6238.5 2830 6858.5" stroke="#0F0F0F" stroke-opacity="0.1" stroke-width="11.34" stroke-miterlimit="10"/>
<path d="M3111.06 -4C3111.06 680.8 3091.06 680.8 3091.06 1365.6C3091.06 2050.4 3111.06 2050.4 3111.06 2735.2C3111.06 3420 3091.06 3420 3091.06 4104.8C3091.06 4789.6 3111.06 4789.6 3111.06 5474.4C3111.06 6159.2 3111 6173.7 3111 6858.5" stroke="#0F0F0F" stroke-opacity="0.1" stroke-width="11.34" stroke-miterlimit="10"/>
<path d="M3414 -3.88281C3414 1137.45 3393.56 1137.33 3393.56 2278.66C3393.56 3419.99 3413.56 3419.99 3413.56 4561.33C3413.56 5702.66 3414 5717.16 3414 6858.5" stroke="#0F0F0F" stroke-opacity="0.1" stroke-width="11.34" stroke-miterlimit="10"/>
<path d="M3685.06 -4C3685.06 852 3665.06 852 3665.06 1708C3665.06 2564 3685.06 2564 3685.06 3420C3685.06 4276 3665.06 4276 3665.06 5132C3665.06 5988 3685 6002 3685 6858" stroke="#0F0F0F" stroke-opacity="0.1" stroke-width="11.34" stroke-miterlimit="10"/>
<path d="M1801 -4C1801 1137.33 1781.56 1137.33 1781.56 2278.66C1781.56 3419.99 1801.56 3419.99 1801.56 4561.33C1801.56 5702.66 1801 5716.66 1801 6858" stroke="#0F0F0F" stroke-opacity="0.1" stroke-width="11.34" stroke-miterlimit="10"/>
<path d="M2073.06 -4C2073.06 566.67 2053.06 566.67 2053.06 1137.33C2053.06 1708 2073.06 1708 2073.06 2278.66C2073.06 2849.33 2053.06 2849.33 2053.06 3419.99C2053.06 3990.66 2073.06 3990.66 2073.06 4561.32C2073.06 5131.99 2053.06 5131.99 2053.06 5702.65C2053.06 6273.31 2073 6287.34 2073 6858" stroke="#0F0F0F" stroke-opacity="0.1" stroke-width="11.34" stroke-miterlimit="10"/>
<path d="M206.002 0C206.002 856 185.562 852 185.562 1708C185.562 2564 205.562 2564 205.562 3420C205.562 4276 185.562 4276 185.562 5132C185.562 5988 206.002 6002 206.002 6858" stroke="#0F0F0F" stroke-opacity="0.1" stroke-width="11.34" stroke-miterlimit="10"/>
<path d="M479 -0.5L457.062 485.14L477.062 974.28L457.062 1463.42L477.062 1952.56L457.062 2441.71L477.062 2930.85L457.062 3419.99L477.062 3909.13L457.062 4398.27L477.062 4887.41L457.062 5376.56L477.062 5865.71L457.062 6354.85C465.63 6551.54 470.435 6661.81 479.002 6858.5" stroke="#0F0F0F" stroke-opacity="0.1" stroke-width="11.34" stroke-miterlimit="10"/>
<path d="M717 -4C717 680.8 696.562 680.8 696.562 1365.6C696.562 2050.4 716.562 2050.4 716.562 2735.2C716.562 3420 696.562 3420 696.562 4104.8C696.562 4789.6 716.562 4789.6 716.562 5474.4C716.562 6159.2 717.002 6173.2 717.002 6858" stroke="#0F0F0F" stroke-opacity="0.1" stroke-width="11.34" stroke-miterlimit="10"/>
<path d="M989 -4C990 65 992.561 133 994.561 202C995.561 257 996.561 313 997.561 368C998.561 517 997.561 666 996.561 815C995.561 964 994.561 1112 996.561 1261C997.561 1352 997.561 1444 998.561 1535C999.561 1634 1000.56 1734 1002.56 1833C1005.56 1967 1008.56 2100 1010.56 2234C1011.56 2433 1010.56 2632 1004.56 2831C1000.56 2991 994.561 3150 984.561 3310C981.561 3368 977.561 3426 973.561 3484L961.561 3703C953.561 3896 947.561 4089 946.561 4282C945.561 4391 944.561 4500 946.561 4609C948.561 4783 954.561 4958 956.561 5132C958.561 5282 959.561 5433 960.561 5583C960.561 5770 978 5949.5 976 6136.5C975 6246.5 974 6370 976 6480C977 6603 987 6735.5 989 6858.5" stroke="#0F0F0F" stroke-opacity="0.1" stroke-width="11.34" stroke-miterlimit="10"/>
<path d="M1291 -4C1291 485.14 1270.56 485.14 1270.56 974.28C1270.56 1463.42 1290.56 1463.42 1290.56 1952.56C1290.56 2441.7 1270.56 2441.7 1270.56 2930.85C1270.56 3419.99 1290.56 3419.99 1290.56 3909.13C1290.56 4398.27 1270.56 4398.27 1270.56 4887.42C1270.56 5376.56 1290.56 5376.56 1290.56 5865.71C1290.56 6354.85 1291 6368.85 1291 6858" stroke="#0F0F0F" stroke-opacity="0.1" stroke-width="11.34" stroke-miterlimit="10"/>
<path d="M1562.06 -4C1562.06 680.8 1542.06 680.8 1542.06 1365.6C1542.06 2050.4 1562.06 2050.4 1562.06 2735.2C1562.06 3420 1542.06 3420 1542.06 4104.8C1542.06 4789.6 1562.06 4789.6 1562.06 5474.4C1562.06 6159.2 1562 6173.2 1562 6858" stroke="#0F0F0F" stroke-opacity="0.1" stroke-width="11.34" stroke-miterlimit="10"/>
<path d="M3925 0C3925 570.67 3904.56 566.67 3904.56 1137.33C3904.56 1708 3924.56 1708 3924.56 2278.66C3924.56 2849.33 3904.56 2849.33 3904.56 3419.99C3904.56 3990.66 3924.56 3990.66 3924.56 4561.32C3924.56 5131.99 3904.56 5131.99 3904.56 5702.65C3904.56 6273.32 3925 6287.34 3925 6858" stroke="#0F0F0F" stroke-opacity="0.1" stroke-width="11.34" stroke-miterlimit="10"/>
<path d="M4187 -0.5C4228 1212.5 4225.56 2422 4178.56 3635C4147.56 4705 4150 5788.5 4187 6858.5" stroke="#0F0F0F" stroke-opacity="0.1" stroke-width="11.34" stroke-miterlimit="10"/>
<path d="M6575 -1C6575 683.8 6554.56 680.8 6554.56 1365.6C6554.56 2050.4 6574.56 2050.4 6574.56 2735.2C6574.56 3420 6554.56 3420 6554.56 4104.8C6554.56 4789.6 6574.56 4789.6 6574.56 5474.4C6574.56 6159.2 6575 6173.2 6575 6858" stroke="#0F0F0F" stroke-opacity="0.1" stroke-width="11.34" stroke-miterlimit="10"/>
<path d="M6837 -1C6892 1095 6897.56 2189 6842.56 3285C6778.56 4471 6775 5672.5 6837 6858.5" stroke="#0F0F0F" stroke-opacity="0.1" stroke-width="11.34" stroke-miterlimit="10"/>
<path d="M7085 -1C7085 683.8 7065.56 680.8 7065.56 1365.6C7065.56 2050.4 7085.56 2050.4 7085.56 2735.2C7085.56 3420 7065.56 3420 7065.56 4104.8C7065.56 4789.6 7085.56 4789.6 7085.56 5474.4C7085.56 6159.2 7085 6173.2 7085 6858" stroke="#0F0F0F" stroke-opacity="0.1" stroke-width="11.34" stroke-miterlimit="10"/>
<path d="M7367 -0.5C7367 684.3 7327.06 680.8 7327.06 1365.6C7327.06 2050.4 7367.06 2050.4 7367.06 2735.2C7367.06 3420 7327.06 3420 7327.06 4104.8C7327.06 4789.6 7367.06 4789.6 7367.06 5474.4C7367.06 6159.2 7367 6173.7 7367 6858.5" stroke="#0F0F0F" stroke-opacity="0.1" stroke-width="11.34" stroke-miterlimit="10"/>
<path d="M7659 0C7659 1141.33 7619.56 1137.33 7619.56 2278.66C7619.56 3419.99 7659.56 3419.99 7659.56 4561.33C7659.56 5702.67 7659 5716.66 7659 6858" stroke="#0F0F0F" stroke-opacity="0.1" stroke-width="11.34" stroke-miterlimit="10"/>
<path d="M6048 -1.5C6048 1710.5 6027.56 1708 6027.56 3420C6027.56 5132 6048 5146 6048 6858" stroke="#0F0F0F" stroke-opacity="0.1" stroke-width="11.34" stroke-miterlimit="10"/>
<path d="M6319 -1C6319 683.8 6299.06 680.8 6299.06 1365.6C6299.06 2050.4 6319.06 2050.4 6319.06 2735.2C6319.06 3420 6299.06 3420 6299.06 4104.8C6299.06 4789.6 6319.06 4789.6 6319.06 5474.4C6319.06 6159.2 6319 6173.7 6319 6858.5" stroke="#0F0F0F" stroke-opacity="0.1" stroke-width="11.34" stroke-miterlimit="10"/>
<path d="M4452 -0.5C4452 1140.83 4431.56 1137.33 4431.56 2278.66C4431.56 3419.99 4451.56 3419.99 4451.56 4561.33C4451.56 5702.67 4452 5717.16 4452 6858.5" stroke="#0F0F0F" stroke-opacity="0.1" stroke-width="11.34" stroke-miterlimit="10"/>
<path d="M4723 -0.5C4723 855.5 4703.06 852 4703.06 1708C4703.06 2564 4723.06 2564 4723.06 3420C4723.06 4276 4703.06 4276 4703.06 5132C4703.06 5988 4723 6002 4723 6858" stroke="#0F0F0F" stroke-opacity="0.1" stroke-width="11.34" stroke-miterlimit="10"/>
<path d="M4962 -1L4942.56 3420L4962 6858.5" stroke="#0F0F0F" stroke-opacity="0.1" stroke-width="11.34" stroke-miterlimit="10"/>
<path d="M5234 -1L5214.06 1365.6L5234.06 2735.2L5214.06 4104.8L5234.06 5474.4V6858" stroke="#0F0F0F" stroke-opacity="0.1" stroke-width="11.34" stroke-miterlimit="10"/>
<path d="M5527 -1.5C5585 1089.5 5585.56 2179 5534.56 3270C5503.56 3841 5529 4414.5 5527 4986.5C5524 5607.5 5514 6242.5 5527 6858.5" stroke="#0F0F0F" stroke-opacity="0.1" stroke-width="11.34" stroke-miterlimit="10"/>
<path d="M5808 -2C5808 1139.33 5788.06 1137.33 5788.06 2278.66C5788.06 3419.99 5808.06 3419.99 5808.06 4561.33C5808.06 5702.67 5808 5716.66 5808 6858" stroke="#0F0F0F" stroke-opacity="0.1" stroke-width="11.34" stroke-miterlimit="10"/>
<path d="M-4.44141 5561.5C424.339 5561.5 424.339 5581.5 853.109 5581.5C1281.89 5581.5 1281.89 5561.5 1710.66 5561.5C2139.44 5561.5 2139.44 5581.5 2568.21 5581.5C2996.99 5581.5 2996.99 5561.5 3425.76 5561.5C3854.54 5561.5 3854.54 5581.5 4283.32 5581.5C4712.1 5581.5 4712.1 5561.5 5140.88 5561.5C5569.66 5561.5 5569.66 5581.5 5998.44 5581.5C6427.22 5581.5 6427.22 5561.5 6856 5561.5C7284.78 5561.5 7284.78 5581.5 7713.56 5581.5" stroke="#0F0F0F" stroke-opacity="0.1" stroke-width="11.34" stroke-miterlimit="10"/>
<path d="M-4.44141 5298C424.339 5298 424.339 5302 853.109 5302C1281.89 5302 1281.89 5298 1710.66 5298C2139.44 5298 2139.44 5302 2568.21 5302C2996.99 5302 2996.99 5298 3425.76 5298C3854.54 5298 3854.54 5302 4283.32 5302C4712.1 5302 4712.1 5298 5140.88 5298C5569.66 5298 5569.66 5302 5998.44 5302C6427.22 5302 6427.22 5298 6856 5298C7284.78 5298 7284.78 5302 7713.56 5302" stroke="#0F0F0F" stroke-opacity="0.1" stroke-width="11.34" stroke-miterlimit="10"/>
<path d="M-3.77344 6841C425.007 6841 425.007 6845 853.777 6845C1282.56 6845 1281.89 6831 1710.66 6831C2139.44 6831 2139.44 6835 2568.21 6835C2996.99 6835 2996.99 6831 3425.76 6831C3854.54 6831 3854.54 6835 4283.32 6835C4712.1 6835 4712.1 6831 5140.88 6831C5569.66 6831 5569.66 6835 5998.44 6835C6427.22 6835 6427.22 6831 6856 6831C7284.78 6831 7284.78 6835 7713.56 6835" stroke="#0F0F0F" stroke-opacity="0.1" stroke-width="11.34" stroke-miterlimit="10"/>
<path d="M-4.44141 5060C750.559 5022 1504.56 5005 2260.56 5012C2874.56 5017 3485.56 5041 4099.56 5072C4282.56 5082 4465.56 5088 4648.56 5094C4763.56 5097 4878.56 5101 4993.56 5103C5322.56 5109 5649.56 5113 5978.56 5111C6293.56 5109 6608.56 5103 6923.56 5093C7187.56 5086 7450.56 5073 7713.56 5061" stroke="#0F0F0F" stroke-opacity="0.1" stroke-width="11.34" stroke-miterlimit="10"/>
<path d="M-4.44141 4779C767.359 4779 767.359 4799 1539.16 4799C2310.96 4799 2310.96 4779 3082.76 4779C3854.56 4779 3854.56 4799 4626.36 4799C5398.16 4799 5398.16 4779 6169.96 4779C6941.76 4779 6941.76 4799 7713.56 4799" stroke="#0F0F0F" stroke-opacity="0.1" stroke-width="11.34" stroke-miterlimit="10"/>
<path d="M-4.44141 4476.5C1281.89 4476.5 1281.89 4496.5 2568.22 4496.5C3854.55 4496.5 3854.55 4476.5 5140.89 4476.5C6427.23 4476.5 6427.22 4496.5 7713.56 4496.5" stroke="#0F0F0F" stroke-opacity="0.1" stroke-width="11.34" stroke-miterlimit="10"/>
<path d="M-4.44141 4205C960.309 4205 960.309 4225 1925.06 4225C2889.81 4225 2889.81 4205 3854.56 4205C4819.31 4205 4819.31 4225 5784.06 4225C6748.81 4225 6748.81 4205 7713.56 4205" stroke="#0F0F0F" stroke-opacity="0.1" stroke-width="11.34" stroke-miterlimit="10"/>
<path d="M-4.44141 6088.5C1281.89 6088.5 1281.89 6108.5 2568.22 6108.5C3854.55 6108.5 3854.55 6088.5 5140.89 6088.5C6427.23 6088.5 6427.22 6108.5 7713.56 6108.5" stroke="#0F0F0F" stroke-opacity="0.1" stroke-width="11.34" stroke-miterlimit="10"/>
<path d="M-4.44141 5817C638.729 5817 638.729 5837 1281.89 5837C1925.06 5837 1925.06 5817 2568.22 5817C3211.39 5817 3211.39 5837 3854.55 5837C4497.72 5837 4497.72 5817 5140.88 5817C5784.05 5817 5784.05 5837 6427.22 5837C7070.39 5837 7070.39 5817 7713.56 5817" stroke="#0F0F0F" stroke-opacity="0.1" stroke-width="11.34" stroke-miterlimit="10"/>
<path d="M-4.44141 6599.5C546.839 6599.5 546.839 6619.5 1098.13 6619.5C1649.41 6619.5 1649.41 6599.5 2200.7 6599.5C2751.99 6599.5 2751.99 6619.5 3303.27 6619.5C3854.56 6619.5 3854.56 6599.5 4405.84 6599.5C4957.13 6599.5 4957.13 6619.5 5508.41 6619.5C6059.7 6619.5 6059.7 6599.5 6610.98 6599.5C7162.27 6599.5 7162.27 6619.5 7713.55 6619.5" stroke="#0F0F0F" stroke-opacity="0.1" stroke-width="11.34" stroke-miterlimit="10"/>
<path d="M-4.44141 6328C767.359 6328 767.359 6348 1539.16 6348C2310.96 6348 2310.96 6328 3082.76 6328C3854.56 6328 3854.56 6348 4626.36 6348C5398.16 6348 5398.16 6328 6169.96 6328C6941.76 6328 6941.76 6348 7713.56 6348" stroke="#0F0F0F" stroke-opacity="0.1" stroke-width="11.34" stroke-miterlimit="10"/>
<path d="M-4.44141 3965.5C638.729 3965.5 638.729 3985.5 1281.89 3985.5C1925.06 3985.5 1925.06 3965.5 2568.22 3965.5C3211.39 3965.5 3211.39 3985.5 3854.55 3985.5C4497.72 3985.5 4497.72 3965.5 5140.88 3965.5C5784.05 3965.5 5784.05 3985.5 6427.22 3985.5C7070.39 3985.5 7070.39 3965.5 7713.56 3965.5" stroke="#0F0F0F" stroke-opacity="0.1" stroke-width="11.34" stroke-miterlimit="10"/>
<path d="M-4.44141 3704C1150.56 3665 2303.56 3659 3459.56 3692C3749.56 3700 4039.56 3712 4329.56 3719C4427.56 3721 4525.56 3724 4623.56 3726C4758.56 3729 4893.56 3730 5028.56 3733C5160.56 3735 5291.56 3735 5423.56 3737C5498.56 3738 5573.56 3737 5648.56 3737C6337.56 3740 7025.56 3728 7713.56 3704" stroke="#0F0F0F" stroke-opacity="0.1" stroke-width="11.34" stroke-miterlimit="10"/>
<path d="M-4.44141 1315.5C767.359 1315.5 767.359 1335.5 1539.16 1335.5C2310.96 1335.5 2310.96 1315.5 3082.76 1315.5C3854.56 1315.5 3854.56 1335.5 4626.36 1335.5C5398.16 1335.5 5398.16 1315.5 6169.96 1315.5C6941.76 1315.5 6941.76 1335.5 7713.56 1335.5" stroke="#0F0F0F" stroke-opacity="0.1" stroke-width="11.34" stroke-miterlimit="10"/>
<path d="M-4.44141 1054C365.559 1035 734.559 1021 1105.56 1013C1248.56 1009 1392.56 1008 1535.56 1006C1672.56 1003 1808.56 1004 1945.56 1004C2028.56 1004 2112.56 1003 2195.56 1004C2327.56 1005 2458.56 1007 2590.56 1009C2668.56 1011 2747.56 1012 2825.56 1014C2968.56 1017 3111.56 1022 3255.56 1028C3332.56 1030 3408.56 1033 3485.56 1036C3685.56 1045 3884.56 1056 4084.56 1065C5296.56 1121 6504.56 1117 7713.56 1054" stroke="#0F0F0F" stroke-opacity="0.1" stroke-width="11.34" stroke-miterlimit="10"/>
<path d="M-4.44141 804.5C767.359 804.5 767.359 824.5 1539.16 824.5C2310.96 824.5 2310.96 804.5 3082.76 804.5C3854.56 804.5 3854.56 824.5 4626.36 824.5C5398.16 824.5 5398.16 804.5 6169.96 804.5C6941.76 804.5 6941.76 824.5 7713.56 824.5" stroke="#0F0F0F" stroke-opacity="0.1" stroke-width="11.34" stroke-miterlimit="10"/>
<path d="M-4.44141 523C767.359 523 767.359 563 1539.16 563C2310.96 563 2310.96 523 3082.76 523C3854.56 523 3854.56 563 4626.36 563C5398.16 563 5398.16 523 6169.96 523C6941.76 523 6941.76 563 7713.56 563" stroke="#0F0F0F" stroke-opacity="0.1" stroke-width="11.34" stroke-miterlimit="10"/>
<path d="M-4.44141 230.5C1281.89 230.5 1281.89 270.5 2568.22 270.5C3854.55 270.5 3854.55 230.5 5140.89 230.5C6427.23 230.5 6427.22 270.5 7713.56 270.5" stroke="#0F0F0F" stroke-opacity="0.1" stroke-width="11.34" stroke-miterlimit="10"/>
<path d="M-4.44141 1842.5C1925.06 1842.5 1925.06 1862.5 3854.56 1862.5C5784.06 1862.5 5784.06 1842.5 7713.56 1842.5" stroke="#0F0F0F" stroke-opacity="0.1" stroke-width="11.34" stroke-miterlimit="10"/>
<path d="M-4.44141 1571C767.359 1571 767.359 1591 1539.16 1591C2310.96 1591 2310.96 1571 3082.76 1571C3854.56 1571 3854.56 1591 4626.36 1591C5398.16 1591 5398.16 1571 6169.96 1571C6941.76 1571 6941.76 1591 7713.56 1591" stroke="#0F0F0F" stroke-opacity="0.1" stroke-width="11.34" stroke-miterlimit="10"/>
<path d="M-4.44141 3438.5C1281.89 3438.5 1281.89 3458.5 2568.22 3458.5C3854.55 3458.5 3854.55 3438.5 5140.89 3438.5C6427.23 3438.5 6427.22 3458.5 7713.56 3458.5" stroke="#0F0F0F" stroke-opacity="0.1" stroke-width="11.34" stroke-miterlimit="10"/>
<path d="M-4.44141 3167C960.309 3167 960.309 3187 1925.06 3187C2889.81 3187 2889.81 3167 3854.56 3167C4819.31 3167 4819.31 3187 5784.06 3187C6748.81 3187 6748.81 3167 7713.56 3167" stroke="#0F0F0F" stroke-opacity="0.1" stroke-width="11.34" stroke-miterlimit="10"/>
<path d="M-4.44141 2927.5L3854.56 2947.5L7713.56 2927.5" stroke="#0F0F0F" stroke-opacity="0.1" stroke-width="11.34" stroke-miterlimit="10"/>
<path d="M-4.44141 2656L1539.16 2676L3082.75 2656L4626.35 2676L6169.95 2656L7713.56 2676" stroke="#0F0F0F" stroke-opacity="0.1" stroke-width="11.34" stroke-miterlimit="10"/>
<path d="M-4.44141 2363C750.559 2325 1504.56 2308 2260.56 2315C2874.56 2320 3485.56 2344 4099.56 2375C4282.56 2385 4465.56 2391 4648.56 2397C4763.56 2400 4878.56 2404 4993.56 2406C5322.56 2412 5649.56 2416 5978.56 2414C6293.56 2412 6608.56 2406 6923.56 2396C7187.56 2389 7450.56 2376 7713.56 2364" stroke="#0F0F0F" stroke-opacity="0.1" stroke-width="11.34" stroke-miterlimit="10"/>
<path d="M-4.44141 2082C1281.89 2082 1281.89 2102 2568.22 2102C3854.55 2102 3854.55 2082 5140.89 2082C6427.23 2082 6427.22 2102 7713.56 2102" stroke="#0F0F0F" stroke-opacity="0.1" stroke-width="11.34" stroke-miterlimit="10"/>
</g>
<defs>
<clipPath id="clip0_2969_980">
<rect width="7719.56" height="6858" fill="white"/>
</clipPath>
</defs>
</svg>
